<?xml version="1.0" encoding="UTF-8"?>
<svg id="Calque_2" data-name="Calque 2" xmlns="http://www.w3.org/2000/svg" viewBox="0 0 178.27 57.34">
  <defs>
    <style>
      .cls-1 {
        fill: none;
      }

      .cls-2 {
        fill: #f40202;
      }
    </style>
  </defs>
  <g id="Calque_1-2" data-name="Calque 1">
    <g>
      <path class="cls-1" d="M109.67,25.66c.25-.03.51-.08.77-.12v-6.51s-.77,6.63-.77,6.63Z"/>
      <path class="cls-1" d="M93.97,25.54c.23-.04.46-.08.69-.12l-.69-5.54v5.65Z"/>
      <path class="cls-1" d="M49.66,17.84v-3.02c0-1.74-.27-2.89-.81-3.43-.54-.54-1.52-.82-2.94-.82v12.24c1.39,0,2.36-.22,2.92-.66.56-.44.83-1.88.83-4.3Z"/>
      <path class="cls-1" d="M13.35,40.32c-.34.06-.67.14-1.01.2v1.04c0,2.67.14,4.42.41,5.23s.89,1.22,1.85,1.22,1.52-.41,1.8-1.23c.28-.82.42-2.74.42-5.76v-.75c-1.12-.24-2.26-.18-3.47.03Z"/>
      <path class="cls-2" d="M.6,43.52c1.51-.57,2.68-1.45,3.68-2.46.9-.91,1.99-1.47,3.43-1.64,1.38-.16,2.55-.73,3.67-1.41.31-.19.63-.37.96-.53v-21.47c0-2.79.14-4.6.41-5.44.27-.84.92-1.26,1.93-1.26.9,0,1.48.35,1.74,1.03.26.69.4,2.43.4,5.21v9.56h12.33v-5.23c0-5.14-.37-8.92-1.11-11.35s-2.29-4.46-4.66-6.09S18.02,0,14.38,0c-2.68,0-5.04.53-7.1,1.58-2.06,1.05-3.67,2.5-4.83,4.33-1.16,1.84-1.86,3.74-2.09,5.73-.23,1.98-.35,4.96-.35,8.92v16.08c0,2.74.1,5.12.29,7.16.12-.12.2-.23.31-.27Z"/>
      <path class="cls-2" d="M25.02,35.07c.9-.31,1.8-.63,2.71-.95h-10.91v1.96c.94-.14,1.89-.21,2.87-.2,1.85.02,3.6-.21,5.33-.81Z"/>
      <path class="cls-2" d="M23.96,38.11c-.22-.02-.47.01-.86.03-1.07.85-2.2,1.75-3.44,2.73-.79-.16-1.63-.26-2.39-.48-.15-.04-.3-.06-.45-.09v.75c0,3.02-.14,4.94-.42,5.76-.28.82-.88,1.23-1.8,1.23s-1.57-.41-1.85-1.22-.41-2.56-.41-5.23v-1.04c-3.73.7-7.33,1.72-10.82,3.05-.29.11-.59.2-.89.29-.06.02-.14,0-.32,0,.19,1.95.47,3.58.84,4.89.76,2.69,2.31,4.79,4.66,6.3s5.32,2.28,8.94,2.28,6.4-.9,8.77-2.69c2.37-1.79,3.91-3.88,4.6-6.26.61-2.09.95-5.47,1.02-10.13-1.74.11-3.46.04-5.18-.15Z"/>
      <path class="cls-2" d="M42.91,36.92c-.61.31-1.25.58-1.89.85-2.12.88-4.22,1.13-6.34.38-.35-.12-.72-.2-1.1-.25v18.27h12.33v-20.39c-.21-.04-.41-.07-.63-.11-.76.4-1.56.84-2.37,1.25Z"/>
      <path class="cls-2" d="M41.29,31.92c2.01-.69,3.95-1.5,5.73-2.53,1.09-.63,2.2-.96,3.55-.96,1.72,0,3.46-.16,5.2-.29.14-.01.28-.01.41-.02-.56-.23-1.17-.45-1.86-.65,2.7-.29,4.5-1.18,5.42-2.65.92-1.47,1.38-4.35,1.38-8.63,0-4.69-.65-8.11-1.95-10.25s-2.98-3.47-5.04-3.99c-2.06-.52-6-.78-11.82-.78h-8.73v31.31c.21.02.41.05.62.12,2.41.76,4.76.13,7.1-.67ZM45.91,10.57c1.43,0,2.41.27,2.94.82.54.54.81,1.69.81,3.43v3.02c0,2.42-.28,3.86-.83,4.3-.56.44-1.53.66-2.92.66v-12.24Z"/>
      <path class="cls-2" d="M56.99,34.4c-.53.29-1.16.49-1.66.81-1.8,1.16-3.73,1.29-5.7,1.12.01.48.02,1,.02,1.56v18.28h11.46v-14.51c0-3.67-.07-6.15-.21-7.46-.63-.01-1.26-.07-1.89-.19-.75-.14-1.38.03-2.01.38Z"/>
      <path class="cls-2" d="M75.01,33.25c-2.61-1.17-5.46-.87-8.17-.03-.32.1-.64.19-.95.28v22.69h12.33v-22.18c-.2-.02-.41-.04-.63-.07-.9-.1-1.81-.35-2.58-.69Z"/>
      <path class="cls-2" d="M75.59,26.17c.85-.37,1.72-.52,2.63-.59V1.16h-12.33v26.79c1.16-.15,2.33-.28,3.5-.39,2.14-.21,4.25-.54,6.21-1.39Z"/>
      <path class="cls-2" d="M109.67,25.66l.77-6.63v6.51c.27-.04.54-.07.81-.13,1.39-.29,2.81-.53,4.22-.73,2.13-.3,4.1-.17,5.77.64V1.16h-16.05l-2.68,24.25c.35.04.7.09,1.05.14,2.04.3,4.06.37,6.11.11Z"/>
      <path class="cls-2" d="M86.6,32.29c-.27-.03-.61.13-.9.22-.3.1-.57.24-.86.35-.66.27-1.2.49-1.66.66v22.65h10.78v-22.1c-1.03-.14-1.94-.44-2.69-1.06-1.4-.67-3.09-.55-4.67-.73Z"/>
      <path class="cls-2" d="M88.01,24.86c2.31-.03,2.31.02,3.88,1.09.16-.01.32,0,.46-.04.54-.15,1.08-.27,1.61-.37v-5.65s.69,5.54.69,5.54c2.53-.4,5.03-.35,7.5-.06l-1.56-12.51c-.5-4.49-.99-8.39-1.46-11.7h-15.96v24.05c.12-.01.24-.02.36-.03,1.49-.12,2.99-.3,4.48-.31Z"/>
      <path class="cls-2" d="M103.49,31.75c-.76.12-1.49.43-2.22.7-.44.16-.86.37-1.24.61-1.32.82-2.7,1.14-4.27,1.15l2.74,21.98h7.65l2.81-24.29c-2.69-.83-1.83-.7-5.46-.14Z"/>
      <path class="cls-2" d="M117.43,31.92c-1.64.26-3.3.39-4.94.59-.73.09-1.41.03-2.05-.17v23.84h10.79v-24.18c-.18-.03-.37-.06-.55-.1-1.06-.24-2.13-.16-3.25.02Z"/>
      <path class="cls-2" d="M132.82,27.39c1.08-.02,2.2-.24,3.27-.49,1.45-.34,2.81-.39,4.12.09,1.51.55,3.1.61,4.79.21.42-.1.83-.14,1.22-.15v-4.46h-7.71v-10.43h8.23V1.16h-20.57v26.24c2.24.02,4.44.04,6.64,0Z"/>
      <path class="cls-2" d="M143.09,31.5c-2.05.42-4.08.54-6.08.21-1.06-.17-1.99,0-2.94.47-.96.47-1.99.85-3.07,1.3-.92-.26-1.86-.49-2.76-.8-.66-.23-1.35-.36-2.06-.41v23.91h21.39v-11.01h-9.05v-12.1h7.71v-1.86c-.64.02-1.3.06-1.95.12-.39.03-.79.09-1.18.17Z"/>
      <path class="cls-2" d="M174.11,34.92c-2.15-.24-4.3-.49-6.42-.81-1.31-.2-2.6-.32-3.96-.05-.53.1-1.04.15-1.55.17,1.61,1.31,2.69,2.31,3.23,3,.76,1,1.14,3.12,1.14,6.36,0,1.47-.2,2.58-.6,3.33s-1.01,1.12-1.83,1.12-1.39-.29-1.71-.88c-.32-.59-.48-1.91-.48-3.98v-6.7h-11.46v3.6c0,4.12.36,7.31,1.08,9.55s2.25,4.09,4.58,5.54,5.15,2.18,8.45,2.18c3.01,0,5.64-.63,7.91-1.89,2.27-1.26,3.79-2.81,4.58-4.67s1.19-4.75,1.19-8.67c0-2.89-.21-5.34-.62-7.37-1.23.22-2.38.31-3.54.18Z"/>
      <path class="cls-2" d="M162.14,31.67c1.58.03,3.15,0,4.71-.37,1.17-.28,2.17-.15,3.09.36.37.2.81.33,1.17.53.96.52,2.06.73,3.24.8.7.04,1.39.11,2.09.17.32.03.61.1.87.19-.32-1.15-.71-2.14-1.19-2.96-1.43-2.42-4.88-5.53-10.37-9.31-1.92-1.31-3.08-2.43-3.49-3.36-.43-.93-.64-2.31-.64-4.15,0-1.43.19-2.49.57-3.2s.94-1.05,1.68-1.05c.68,0,1.17.26,1.46.78.29.52.44,1.73.44,3.64v4.08h11.46v-2.18c0-4.37-.37-7.47-1.1-9.3-.73-1.82-2.23-3.34-4.48-4.54-2.26-1.2-4.99-1.8-8.19-1.8-2.93,0-5.43.55-7.5,1.65-2.07,1.1-3.57,2.62-4.5,4.57s-1.39,5.03-1.39,9.24c0,2.92.33,5.32.98,7.21.65,1.88,1.48,3.35,2.48,4.42.53.57,1.36,1.32,2.48,2.25,1.11.55,2.25,1.07,3.32,1.66.84.46,1.75.65,2.8.67Z"/>
      <path d="M.23,43.87s.05,0,.07,0c0-.03,0-.05,0-.07-.02.02-.04.04-.07.07Z"/>
      <path d="M91.23,32.99s.03.02.04.03c.01,0,.03.01.04.02,0,0-.08-.04-.08-.05Z"/>
    </g>
  </g>
</svg>