<?xml version="1.0" encoding="UTF-8"?>
<svg id="Calque_2" data-name="Calque 2" xmlns="http://www.w3.org/2000/svg" viewBox="0 0 244.97 85.31">
  <defs>
    <style>
      .cls-1 {
        fill: #f40202;
      }
    </style>
  </defs>
  <g id="Calque_1-2" data-name="Calque 1">
    <g>
      <path class="cls-1" d="M41.4,51.3c-3.59.67-7.11.59-10.62.21-.31-.03-.64.02-1.18.04-1.42,1.13-2.94,2.33-4.58,3.64v5.88c0,4.49-.21,7.35-.63,8.57-.42,1.22-1.31,1.82-2.68,1.82s-2.34-.61-2.75-1.82-.61-3.81-.61-7.79v-7.54c-.7.03-1.41.11-2.14.23-5.58.95-10.94,2.45-16.14,4.43.18,5.82.72,10.36,1.63,13.57,1.13,3.99,3.44,7.12,6.93,9.38,3.49,2.26,7.92,3.39,13.29,3.39s9.52-1.33,13.06-4c3.53-2.67,5.81-5.77,6.84-9.32,1.03-3.54,1.55-9.55,1.55-18.03v-2.79c-.65-.03-1.31,0-1.97.13Z"/>
      <path class="cls-1" d="M8.47,53.3c1.9-.22,3.5-1,5.03-1.93,1.53-.93,3.16-1.61,4.85-2.08v-25.47c0-4.15.2-6.84.61-8.09.41-1.25,1.37-1.87,2.88-1.87,1.34,0,2.2.51,2.59,1.54.39,1.03.59,3.61.59,7.75v14.23h18.35v-7.78c0-7.64-.55-13.27-1.66-16.89s-3.41-6.64-6.93-9.07S26.81,0,21.4,0c-3.98,0-7.5.78-10.57,2.35-3.07,1.57-5.46,3.72-7.19,6.45-1.73,2.73-2.77,5.57-3.12,8.52-.35,2.95-.52,7.37-.52,13.27v23.92c0,1.33.02,2.59.05,3.82,1.44-.74,2.64-1.7,3.71-2.77,1.24-1.24,2.74-2.02,4.71-2.25Z"/>
      <path class="cls-1" d="M78.92,45.89c-1.02-.19-1.89.04-2.77.52-.73.4-1.59.67-2.28,1.11-.18.12-.37.21-.56.31v14.22c0,4.08-.17,6.67-.5,7.76s-1.08,1.64-2.24,1.64c-1.02,0-1.69-.5-2.03-1.49-.33-.99-.5-3.28-.5-6.85v-13.97c-1.15.02-2.31-.09-3.48-.23-1.47-.18-2.9-.48-4.5-.75-1.05.56-2.14,1.16-3.26,1.72-.84.42-1.72.8-2.6,1.17-1.51.63-3.01,1.01-4.51,1.1.02,8.11.16,13.53.43,16.19.29,2.88,1.24,5.62,2.83,8.22,1.6,2.6,4.01,4.7,7.24,6.32,3.23,1.62,6.95,2.43,11.16,2.43,3.81,0,7.11-.68,9.92-2.05,2.8-1.37,5.06-3.37,6.78-6.02s2.75-5.23,3.09-7.74c.35-2.51.52-6.87.52-13.07v-12.18c-.67.15-1.33.32-1.99.52-3.64,1.12-7.11,1.78-10.76,1.11Z"/>
      <path class="cls-1" d="M62.45,39.53c1.5-.87,3.03-1.32,4.88-1.32.24,0,.48-.02.72-.03V1.72h-18.35v42.54c1.64-.22,3.27-.71,4.89-1.26,2.76-.94,5.42-2.06,7.87-3.47Z"/>
      <path class="cls-1" d="M81.22,37.91c1.69.22,3.39.17,5.15-.1,1.76-.27,3.53-.46,5.3-.64V1.72h-18.35v36.17c.38-.03.76-.06,1.15-.08,2.28-.17,4.54-.18,6.75.11Z"/>
      <path class="cls-1" d="M106.45,34.23c2.05-.06,4.1-.34,6.16-.5,1.51-.12,3.02-.26,4.52-.34V1.72h-18.35v34.35c.99-.26,1.98-.56,2.93-.97,1.52-.66,3.09-.82,4.75-.87Z"/>
      <path class="cls-1" d="M115.58,43.81c-.41.14-.79.33-1.18.49-4.89,1.98-4.91,2.02-9.95,1.47-1.24-.13-2.49-.48-3.55-.95-.7-.31-1.41-.53-2.13-.7v39.46h29.51v-16.38h-11.16v-23.67c-.1-.01-.21-.02-.31-.03-.37-.04-.83.17-1.24.31Z"/>
      <path class="cls-1" d="M149.26,43.49c-.28-.1-.58-.18-.88-.27-4.76-1.43-3.03-1.28-8.37-.46-1.04.16-2.05.6-3.05.96-.6.22-1.18.51-1.7.83-.4.25-.81.44-1.22.63v38.4h18.35v-39.78s-.01,0-.02,0c-1.12.14-2.15.04-3.12-.32Z"/>
      <path class="cls-1" d="M150.67,34.06c.57-.12,1.15-.22,1.72-.33v-15.63h10.9V1.72h-40.1v16.38h10.85v15.59c2.04.05,4.06.26,6.07.55,3.52.52,6.97.56,10.56-.18Z"/>
      <path class="cls-1" d="M194.41,42.42c-2.81.58-5.6.74-8.35.29-1.45-.24-2.73,0-4.04.65-1.31.65-2.73,1.17-4.21,1.79-1.26-.36-2.56-.68-3.79-1.09-1.37-.47-2.81-.67-4.35-.61-.74.03-1.47.02-2.2,0v40.15h31.82v-16.38h-13.47v-18h11.46v-7.11c-.42.03-.84.06-1.26.09-.54.04-1.08.12-1.62.23Z"/>
      <path class="cls-1" d="M180.3,36.78c1.48-.03,3.03-.32,4.49-.67,1.99-.47,3.86-.53,5.65.12,2.07.75,4.26.83,6.58.29.09-.02.17-.02.26-.04v-2.86h-11.46v-15.52h12.25V1.72h-30.6v34.27c.37.26.74.52,1.09.77,3.99.02,7.86.1,11.74.02Z"/>
      <path class="cls-1" d="M242.56,46.73c-1.95.39-3.75.6-5.55.39-2.95-.33-5.9-.67-8.81-1.11-1.8-.27-3.58-.44-5.43-.08-2.34.46-4.5.28-6.58-.43-.94-.32-1.92-.54-2.92-.7,1.17.95,2.49,1.99,3.99,3.14,4.56,3.47,7.42,5.95,8.59,7.43,1.13,1.48,1.7,4.64,1.7,9.46,0,2.19-.3,3.84-.89,4.96s-1.5,1.67-2.72,1.67-2.07-.44-2.55-1.31c-.48-.88-.72-2.85-.72-5.92v-9.96h-17.04v5.36c0,6.14.54,10.87,1.61,14.21s3.35,6.09,6.82,8.24,7.66,3.24,12.58,3.24c4.48,0,8.4-.94,11.77-2.81,3.37-1.87,5.64-4.19,6.82-6.95s1.77-7.06,1.77-12.89c0-6.98-.8-12.29-2.41-15.93Z"/>
      <path class="cls-1" d="M211.49,39.13c1.74.88,3.56,1.67,5.24,2.6,1.15.64,2.4.9,3.84.92,2.16.04,4.32,0,6.46-.51,1.61-.39,2.98-.21,4.25.49.5.28,1.11.46,1.61.73,1.31.72,2.83,1.01,4.46,1.1.96.05,1.91.15,2.87.23.56.05,1.04.19,1.48.37-2.17-3.59-7.27-8.15-15.34-13.71-2.85-1.95-4.58-3.62-5.19-5.01-.64-1.38-.96-3.44-.96-6.17,0-2.13.28-3.71.85-4.76s1.4-1.57,2.51-1.57c1.02,0,1.74.39,2.18,1.16.44.78.65,2.58.65,5.41v6.07h17.04v-3.24c0-6.51-.54-11.12-1.63-13.83-1.09-2.71-3.31-4.96-6.67-6.75-3.36-1.79-7.42-2.68-12.18-2.68-4.36,0-8.08.82-11.16,2.45-3.08,1.64-5.31,3.9-6.69,6.8-1.38,2.9-2.07,7.48-2.07,13.75,0,4.35.49,7.92,1.46,10.72.61,1.74,1.32,3.22,2.13,4.5.33,0,.65.03.98.02,1.47-.06,2.71.3,3.87.88Z"/>
    </g>
  </g>
</svg>