<?xml version="1.0" encoding="UTF-8"?>
<svg id="Calque_2" data-name="Calque 2" xmlns="http://www.w3.org/2000/svg" viewBox="0 0 265.53 85.92">
  <defs>
    <style>
      .cls-1 {
        fill: #f40202;
      }
    </style>
  </defs>
  <g id="Calque_1-2" data-name="Calque 1">
    <g>
      <path class="cls-1" d="M35.48,68.11c-.33-.04-.69.02-1.27.04-1.57,1.25-3.25,2.58-5.08,4.04-1.17-.23-2.4-.39-3.54-.72-.67-.19-1.34-.28-2.01-.33-.51.53-1.16.82-2.01.82-.7,0-1.26-.21-1.69-.6-.02,0-.05,0-.07,0-5.88,1-11.53,2.58-17.02,4.64.13.26.24.53.38.78,1.41,2.58,3.46,4.75,6.17,6.49,2.71,1.75,5.62,2.62,8.72,2.62,2.61,0,4.87-.64,6.79-1.91,1.92-1.27,3.51-3.18,4.77-5.73l1.71,5.91h11.62v-15.85c-2.5.15-4.99.05-7.46-.23Z"/>
      <path class="cls-1" d="M11.47,70.04c2.04-.24,3.76-1.08,5.42-2.08.56-.34,1.14-.64,1.72-.92-.08-1.14-.12-2.51-.12-4.14V23.33c0-4.21.2-6.82.61-7.84s1.19-1.53,2.33-1.53c1.32,0,2.15.59,2.5,1.78.35,1.19.53,4.14.53,8.86v7.49h18.48v-3.56c0-6.76-.54-11.91-1.62-15.46-1.08-3.55-3.41-6.61-6.98-9.19-3.57-2.58-8.06-3.87-13.48-3.87S10.87,1.49,7.4,4.46C3.93,7.43,1.83,10.7,1.1,14.26c-.73,3.57-1.1,9.29-1.1,17.16v24.5c0,5.67.18,9.92.53,12.76.29,2.33.96,4.58,1.96,6.74,1.52-.8,2.79-1.82,3.91-2.95,1.33-1.34,2.95-2.18,5.07-2.42Z"/>
      <path class="cls-1" d="M37.04,63.62c1.97-.68,3.93-1.38,5.9-2.07v-21.62h-21.64v12.53h3.73v9.78c0,1.06-.02,2.01-.06,2.87,1.37-.2,2.77-.31,4.19-.3,2.74.02,5.33-.32,7.88-1.2Z"/>
      <path class="cls-1" d="M82.49,53.37c2.46-.18,4.88-.2,7.27.12.78.1,1.56.14,2.35.14V1.73h-18.48v52.14c.38-.04.77-.08,1.18-.08,2.54,0,5.12-.24,7.68-.43Z"/>
      <path class="cls-1" d="M61.1,58.96c2.51-.86,4.94-1.86,7.22-3.07V1.73h-18.48v48.79c0,3.57.02,6.66.07,9.28.24.03.47.06.71.14,3.57,1.12,7.03.2,10.49-.98Z"/>
      <path class="cls-1" d="M87.28,62.07c-1.1-.2-2.03.04-2.98.56-.79.43-1.71.72-2.45,1.19-2.61,1.68-5.41,1.89-8.27,1.67-.07,2.4-.22,4.01-.47,4.82-.34,1.1-1.09,1.66-2.26,1.66-1.02,0-1.7-.5-2.04-1.5-.3-.89-.46-2.8-.5-5.72-.44-.08-.86-.16-1.33-.24-1.13.6-2.3,1.25-3.51,1.85-.91.45-1.85.86-2.8,1.26-3.13,1.3-6.23,1.67-9.37.57-.36-.13-.74-.22-1.13-.3.03.34.05.67.08.95.29,2.9,1.24,5.66,2.85,8.28,1.61,2.62,4.04,4.74,7.29,6.37,3.25,1.63,7,2.44,11.24,2.44,3.83,0,7.16-.69,9.99-2.06,2.82-1.38,5.1-3.4,6.83-6.06s2.77-5.26,3.12-7.79c.24-1.71.39-4.3.47-7.72-1.57.12-3.16.08-4.77-.22Z"/>
      <path class="cls-1" d="M111.8,50.46c1.64-.71,3.32-.88,5.11-.94,2.2-.07,4.42-.37,6.62-.54,1.92-.15,3.85-.36,5.76-.43v-14.68h-11.55v-15.64h12.34V1.73h-30.82v51.13c1.12-.13,2.24-.24,3.36-.35,3.17-.31,6.28-.79,9.18-2.05Z"/>
      <path class="cls-1" d="M110.94,60.92c-3.73-1.67-7.79-1.3-11.68-.16v23.43h32.05v-16.5h-13.57v-5.46c-.8-.05-1.75-.15-2.99-.28-1.33-.14-2.68-.51-3.82-1.02Z"/>
      <path class="cls-1" d="M149.75,59.74c-.65.24-1.27.55-1.83.9-2.2,1.37-4.53,1.81-7.25,1.67-1.52-.08-2.86-.29-4.04-.78v22.65h18.48v-25.82c-.56.1-1.23.21-2.08.34-1.12.17-2.21.64-3.28,1.04Z"/>
      <path class="cls-1" d="M153.13,49.54c.66.1,1.32.16,1.98.22v-2.75c2.55,0,4.12.53,4.72,1.58.17.29.31.73.43,1.28,1.4-.08,2.81-.23,4.24-.53,2.06-.43,4.15-.79,6.23-1.08,2.16-.3,4.2-.3,6.08.11-.41-.95-.97-1.94-1.72-2.98-1.26-1.76-3.72-3.17-7.38-4.23,4.04-.44,6.75-1.76,8.12-3.97,1.38-2.21,2.06-6.52,2.06-12.94,0-7.03-.97-12.15-2.92-15.36s-4.46-5.2-7.55-5.98c-3.09-.78-8.99-1.17-17.72-1.17h-13.08v48.33c5.58-1.54,11.1-1.32,16.5-.53ZM155.11,15.84c2.14,0,3.61.41,4.41,1.22.8.81,1.21,2.53,1.21,5.14v4.53c0,3.63-.42,5.78-1.25,6.44-.83.66-2.29.99-4.37.99V15.84Z"/>
      <path class="cls-1" d="M173.64,58.96c-2.42.38-4.87.57-7.31.87-1.2.15-2.31.04-3.35-.34-.3-.11-.63-.2-.94-.29-.5-.15-.92-.28-1.31-.4v25.39h17.17v-21.75c0-1.31,0-2.49-.02-3.6-1.38-.22-2.78-.12-4.24.12Z"/>
      <path class="cls-1" d="M213.31,58.09c-.58.05-1.17.13-1.74.25-.81.17-1.61.3-2.41.39v25.46h17.17v-21.75c0-.75,0-1.46,0-2.14-1-.18-1.95-.46-2.77-.94-3.02-1.75-6.6-1.57-10.23-1.28Z"/>
      <path class="cls-1" d="M198.24,59.35c-1.41.7-2.94,1.26-4.53,1.93-1.35-.39-2.75-.73-4.08-1.18-1.44-.49-2.96-.7-4.57-.66v24.75h18.48v-25.44c-.32-.04-.63-.05-.95-.1-1.56-.26-2.93,0-4.35.7Z"/>
      <path class="cls-1" d="M196.39,52.27c1.6-.03,3.26-.35,4.83-.72.79-.19,1.56-.29,2.31-.34v-4.2c2.55,0,4.12.53,4.72,1.58.35.61.59,1.81.74,3.56,1.72.34,3.52.28,5.39-.15,1.8-.42,3.46-.33,4.94.47,1.88,1.02,4.06,1.47,6.45,1.37.14,0,.27.01.4.01-.08-1.72-.18-2.94-.32-3.61-.31-1.48-1.09-3.1-2.35-4.86-1.26-1.76-3.72-3.17-7.38-4.23,4.04-.44,6.75-1.76,8.12-3.97,1.38-2.21,2.06-6.52,2.06-12.94,0-7.03-.97-12.15-2.92-15.36s-4.46-5.2-7.55-5.98c-3.09-.78-8.99-1.17-17.72-1.17h-13.08v50.53c3.83.03,7.59.09,11.34.01ZM203.54,15.84c2.14,0,3.61.41,4.41,1.22.8.81,1.21,2.53,1.21,5.14v4.53c0,3.63-.42,5.78-1.25,6.44-.83.66-2.29.99-4.37.99V15.84Z"/>
      <path class="cls-1" d="M239.72,58.59c2.33.04,4.65,0,6.95-.55,1.73-.42,3.21-.22,4.57.53.22.12.47.22.71.32v-9.34h11.55v-15.69h-11.55v-15.64h12.34V1.73h-30.82v54.79c.71.35,1.43.69,2.11,1.07,1.24.68,2.58.97,4.13.99Z"/>
      <path class="cls-1" d="M251.96,67.69v-4.94c-1.35-.17-2.7-.35-4.03-.55-1.94-.3-3.85-.48-5.85-.08-2.51.5-4.84.3-7.08-.47-.5-.17-1-.31-1.52-.44v22.98h32.05v-16.5h-13.57Z"/>
    </g>
  </g>
</svg>