<?xml version="1.0" encoding="UTF-8"?>
<svg id="Calque_2" data-name="Calque 2" xmlns="http://www.w3.org/2000/svg" viewBox="0 0 268.46 57.34">
  <defs>
    <style>
      .cls-1 {
        fill: none;
      }

      .cls-2 {
        fill: #f40202;
      }
    </style>
  </defs>
  <g id="Calque_1-2" data-name="Calque 1">
    <g>
      <path class="cls-1" d="M153.42,26.33l.85,12.59c.18-3.86.48-8.21.88-13.03-.03,0-.06,0-.09.01-.56.09-1.11.24-1.65.43Z"/>
      <path class="cls-1" d="M121.39,40.99c0,3.19.11,5.17.34,5.91s.75,1.12,1.57,1.12,1.38-.43,1.61-1.29c.23-.86.35-2.91.35-6.15v-12.28c-1.7.67-2.75,1.02-3.87,1.15v11.54Z"/>
      <path class="cls-1" d="M173.2,40.24c.24-4.65.56-9.24.92-13.82-.6.08-1.2.14-1.8.21l.89,13.61Z"/>
      <path class="cls-1" d="M124.89,10.38c-.24-.71-.75-1.07-1.51-1.07-.64,0-1.14.29-1.48.87-.34.58-.51,2.28-.51,5.11v1.07c1.24-.11,2.47-.25,3.71-.35.05,0,.1,0,.16-.01v-.71c0-2.56-.12-4.2-.37-4.91Z"/>
      <path class="cls-1" d="M13.23,33.07v3.89c1.25-.4,2.4-.98,3.52-1.66.06-.04.12-.06.18-.1v-2.14h-3.69Z"/>
      <path class="cls-1" d="M45.49,28c.47-.17.93-.33,1.4-.5.42-.15.84-.28,1.25-.38-.34-4.13-.68-8.69-1.03-13.7-.68,5.69-1.22,10.54-1.62,14.57Z"/>
      <path class="cls-1" d="M47.25,35.23c-.82.15-1.63.26-2.44.35-.02.33-.05.65-.07.96h4.25c-.05-.47-.09-.96-.14-1.45-.53,0-1.06.04-1.6.14Z"/>
      <path class="cls-2" d="M.9,44v12.18h12.33v-16.03c-3.85.95-7.61,2.11-11.3,3.51-.34.13-.69.24-1.04.34Z"/>
      <path class="cls-2" d="M25.58,38.87c-1.91-.55-3.82-.45-5.88-.09-.94.16-1.86.36-2.78.55v16.86h12.33v-16.64s-.05.04-.07.06c-1.19-.23-2.44-.4-3.6-.73Z"/>
      <path class="cls-2" d="M11.24,37.42c.7-.08,1.35-.25,1.99-.46v-3.89h3.69v2.14c3.7-2.2,7.9-3.14,12.3-3.1.01,0,.02,0,.04,0V1.16h-12.33v19.68h-3.69V1.16H.9v42.28c2.1-.86,3.76-2.11,5.2-3.55,1.35-1.36,2.99-2.21,5.15-2.46Z"/>
      <path class="cls-2" d="M45.49,28c.41-4.04.95-8.89,1.62-14.57.34,5.01.69,9.57,1.03,13.7.96-.22,1.91-.27,2.87.03,2.65.83,5.25.55,7.84-.13l-3.32-25.87h-17.83l-3.49,30.51c1.01-.19,2.02-.43,3.01-.78,2.76-.95,5.52-1.91,8.26-2.89Z"/>
      <path class="cls-2" d="M51.73,35.53c-.9-.32-1.88-.45-2.89-.44.05.49.09.98.14,1.45h-4.25c.02-.31.04-.63.07-.96-3.09.33-6.14.22-9.17-.12-.34-.04-.7.02-1.29.04-.21.16-.42.33-.63.5l-2.31,20.19h12.75l.74-9.89h4.41l.66,9.89h12.6l-2.66-20.74c-2.73.9-5.45,1.04-8.19.08Z"/>
      <path class="cls-2" d="M72.58,32.62c-1.6-.2-3.17-.52-4.92-.82-.96.51-1.96,1.05-2.98,1.57v22.81h19.83v-11.01h-7.5v-12.33c-1.46.08-2.94-.04-4.43-.22Z"/>
      <path class="cls-2" d="M75.6,20.91c.47,0,.94-.02,1.41-.03V1.16h-12.33v23.87c1.94-.78,3.82-1.65,5.59-2.67,1.64-.95,3.31-1.45,5.33-1.45Z"/>
      <path class="cls-2" d="M96.41,20.48c1.14-.17,2.28-.32,3.42-.45V1.16h-12.33v19.2c1.1.02,2.2.09,3.29.23,1.85.24,3.71.18,5.63-.11Z"/>
      <path class="cls-2" d="M88.27,29.31c-.27-.05-.53-.07-.78-.07v26.93h19.83v-11.01h-7.5v-17.01c-3.9,1.19-7.64,1.87-11.56,1.16Z"/>
      <path class="cls-2" d="M118.37,16.57c1-.03,2.01-.11,3.02-.2v-1.07c0-2.83.17-4.54.51-5.11.34-.58.83-.87,1.48-.87.76,0,1.26.36,1.51,1.07.24.71.37,2.35.37,4.91v.71c2.19-.18,4.39-.43,6.57-.46,3.4-.04,3.47.03,5.68,1.54-.06-2.14-.15-3.83-.27-5.03-.23-2.27-.97-4.36-2.2-6.29s-2.86-3.37-4.88-4.33c-2.02-.96-4.3-1.44-6.84-1.44-2.68,0-5.02.51-7.03,1.53s-3.61,2.48-4.79,4.38-1.88,4.01-2.11,6.3c-.15,1.5-.24,3.71-.3,6.6,1.39-.31,2.76-.72,4.08-1.29,1.66-.72,3.38-.9,5.19-.95Z"/>
      <path class="cls-2" d="M129.71,26.71c-.4-.05-.91.19-1.35.34-.44.15-.86.36-1.3.53-.68.27-1.27.51-1.8.72v12.28c0,3.24-.12,5.29-.35,6.15-.23.86-.77,1.29-1.61,1.29s-1.34-.37-1.57-1.12-.34-2.72-.34-5.91v-11.54c-1.27.15-2.65.01-5.21-.26-1.35-.15-2.72-.52-3.88-1.04-1.06-.47-2.15-.78-3.25-.95v6.18c0,5.66.12,9.63.35,11.9s.97,4.36,2.2,6.29,2.86,3.37,4.88,4.33c2.02.96,4.3,1.44,6.84,1.44,2.68,0,5.02-.51,7.03-1.53s3.61-2.48,4.79-4.38,1.88-4,2.11-6.3.34-6.21.34-11.74v-4.97c-.31-.18-.61-.37-.89-.6-2.09-.99-4.63-.82-6.99-1.09Z"/>
      <path class="cls-2" d="M166.72,16.38c1.61-.34,3.23-.62,4.86-.87-.57-8.17-.93-12.95-1.08-14.36h-12.81c-.65,5.56-1.21,10.74-1.69,15.54,3.56.46,7.08.45,10.72-.31Z"/>
      <path class="cls-2" d="M183.38,17.25c.97.73,1.99,1.43,2.91,2.09.18,0,.35,0,.53,0l1.81-18.18h-11.98c-.58,4.6-1.07,9.26-1.53,13.94,3.11-.16,5.94.4,8.26,2.15Z"/>
      <path class="cls-2" d="M180.9,26.13c-1.6-.36-3.2-.24-4.89.03-.63.1-1.26.19-1.89.26-.35,4.58-.67,9.17-.92,13.82l-.89-13.61c-1.24.14-2.49.26-3.73.41-1.22.15-2.35.04-3.41-.35-.31-.11-.64-.2-.96-.3-5.18-1.55-3.34-1.4-9.06-.52-.4,4.82-.7,9.17-.88,13.03l-.85-12.59c-.57.19-1.13.42-1.68.62-.66.24-1.29.56-1.86.91-2.22,1.38-4.56,1.83-7.29,1.7l2.67,26.62h15.31c1.8-14.61,2.95-24.23,3.44-28.85,1.08,10.78,2.32,20.4,3.73,28.85h15.4l2.95-29.52c-1.77,0-3.51-.15-5.19-.53Z"/>
      <path class="cls-2" d="M152.74,16.27l-1.03-15.12h-11.98l1.54,15.33c3.86-.68,7.69-.63,11.47-.21Z"/>
      <path class="cls-2" d="M205.42,25.84c-1.59-.26-2.98,0-4.42.71-1.44.71-2.98,1.28-4.61,1.96-1.38-.39-2.8-.74-4.15-1.2-.39-.13-.79-.24-1.19-.34v29.21h21.39v-11.01h-9.05v-12.1h7.71v-7.04c-1.91.16-3.8.11-5.68-.2Z"/>
      <path class="cls-2" d="M199.13,19.36c1.41-.03,2.86-.28,4.27-.59v-6.6h8.23V1.16h-20.57v18.22c2.71.02,5.38.04,8.06-.01Z"/>
      <path class="cls-2" d="M226.71,26.56c-3.07-1.78-6.7-1.6-10.4-1.3-.11,0-.21.03-.32.04v30.88h21.39v-11.01h-9.05v-12.1h7.71v-4.78c-1.44-.29-2.93-.45-4.44-.53-1.79-.1-3.5-.39-4.88-1.19Z"/>
      <path class="cls-2" d="M222.43,19.56c1.74.94,3.72,1.38,5.9,1.38v-8.78h8.23V1.16h-20.57v18.17c.47-.06.94-.14,1.42-.25,1.83-.43,3.51-.34,5.02.48Z"/>
      <path class="cls-2" d="M258.15,1.16v24.78l-6.91-24.78h-10.31v24.36c.7.16,1.44.24,2.23.26,2.37.04,4.73,0,7.07-.55,1.76-.42,3.26-.23,4.65.54.55.3,1.21.5,1.76.8,1.43.78,3.09,1.1,4.87,1.2,1.05.06,2.09.16,3.14.25,1.6.14,2.71.78,3.64,2-2.56.59-4.85.91-7.15.65-3.23-.36-6.45-.73-9.64-1.22-1.97-.3-3.91-.48-5.94-.08-1.61.32-3.14.36-4.63.15v26.67h10.31v-25.01l6.42,25.01h10.81V1.16h-10.31Z"/>
      <path d="M.56,43.58c-.19.07-.32.28-.56.51.37,0,.5.04.6,0,.1-.03.2-.07.29-.1v-.57c-.11.05-.22.11-.33.15Z"/>
      <path d="M136.66,27.77s.03.02.05.03c.03.01.05.02.08.03,0,0-.13-.07-.13-.07Z"/>
    </g>
  </g>
</svg>