<?xml version="1.0" encoding="UTF-8"?>
<svg id="Calque_2" data-name="Calque 2" xmlns="http://www.w3.org/2000/svg" viewBox="0 0 216.01 57.34">
  <defs>
    <style>
      .cls-1 {
        fill: #f40202;
      }
    </style>
  </defs>
  <g id="Calque_1-2" data-name="Calque 1">
    <g>
      <path class="cls-1" d="M23.49,49.41c-.97-.19-1.98-.32-2.92-.59-1.48-.43-2.95-.36-4.54-.11v7.47h12.33v-10.14c-.19,0-.4.03-.68.04-1.3,1.03-2.69,2.13-4.2,3.33Z"/>
      <path class="cls-1" d="M.23,52.65c1.84-.69,3.26-1.77,4.49-3.01,1.1-1.1,2.43-1.8,4.18-2,1.26-.15,2.37-.57,3.42-1.12v-13.45h3.69v11.56c2.35-.92,4.88-1.32,7.49-1.3,1.67.01,3.27-.14,4.84-.51V1.16h-12.33v19.68h-3.69V1.16H0v51.68c.08-.08.15-.15.23-.18Z"/>
      <path class="cls-1" d="M.26,53.07c-.06.02-.13.01-.26,0v3.1h12.33v-6.76c-3.76.83-7.42,1.93-10.99,3.29-.35.13-.72.25-1.08.36Z"/>
      <path class="cls-1" d="M54.75,43.07c-.93.49-1.9,1.03-2.9,1.52-.75.37-1.53.71-2.31,1.04-.19.08-.39.15-.58.22-.04.37-.1.66-.15.87-.23.86-.77,1.29-1.61,1.29s-1.34-.37-1.57-1.12c-.02-.08-.05-.18-.07-.28-1.25.08-2.5-.07-3.75-.51-1.11-.39-2.38-.48-3.65-.24-1.58.29-3.14.42-4.69.44.33,1.87.99,3.63,2.03,5.25,1.23,1.93,2.86,3.37,4.88,4.33,2.02.96,4.3,1.44,6.84,1.44,2.68,0,5.02-.51,7.03-1.53s3.61-2.48,4.79-4.38,1.88-4,2.11-6.3c.03-.35.07-.75.09-1.18-.83-.02-1.66-.09-2.5-.2-1.3-.16-2.57-.43-4-.67Z"/>
      <path class="cls-1" d="M41.22,39.3c1.37.43,2.73.48,4.07.33V15.29c0-2.83.17-4.54.51-5.11.34-.58.83-.87,1.48-.87.76,0,1.26.36,1.51,1.07.24.71.37,2.35.37,4.91v23.43c.24-.08.48-.16.72-.24,2.45-.84,4.82-1.83,6.99-3.09,1.33-.77,2.69-1.18,4.33-1.18.1,0,.19,0,.29,0,0-.28,0-.55,0-.85v-9.41c0-5.66-.12-9.63-.35-11.9s-.97-4.36-2.2-6.29-2.86-3.37-4.88-4.33c-2.02-.96-4.3-1.44-6.84-1.44-2.68,0-5.02.51-7.03,1.53s-3.61,2.48-4.79,4.38-1.88,4.01-2.11,6.3c-.22,2.3-.34,6.21-.34,11.74v9.41c0,3.18.04,5.8.11,7.91,1.6-.56,3.21-1.12,4.8-1.69,1.13-.41,2.23-.63,3.35-.28Z"/>
      <path class="cls-1" d="M71.5,41.06c-.91-.17-1.68.04-2.46.46-.65.36-1.41.59-2.02.98-.31.2-.62.37-.93.52v13.16h12.33v-15.4c-2.3.52-4.57.71-6.93.28Z"/>
      <path class="cls-1" d="M82.18,39.76v16.42h11.46v-14.51c0-.28,0-.53,0-.8-.92-.15-1.82-.41-2.6-.76-2.82-1.26-5.89-1.12-8.85-.35Z"/>
      <path class="cls-1" d="M73.54,33.97c1.5.2,3.02.15,4.57-.09.1-.02.21-.03.31-.04v-2.47c1.7,0,2.75.35,3.15,1.05.12.22.23.55.31.98.76-.08,1.52-.16,2.28-.24,2.61-.25,5.18-.65,7.58-1.69.21-.09.43-.16.64-.23-.19-.32-.39-.64-.63-.97-.84-1.18-2.48-2.12-4.92-2.82,2.7-.29,4.5-1.18,5.42-2.65.92-1.47,1.38-4.35,1.38-8.63,0-4.69-.65-8.11-1.95-10.25s-2.98-3.47-5.04-3.99c-2.06-.52-6-.78-11.82-.78h-8.73v32.83c.48-.04.97-.07,1.45-.11,2.03-.15,4.03-.16,6,.1ZM78.43,10.57c1.43,0,2.41.27,2.94.82.54.54.81,1.69.81,3.43v3.02c0,2.42-.28,3.86-.83,4.3-.56.44-1.53.66-2.92.66v-12.24Z"/>
      <path class="cls-1" d="M106.89,29.87c2.82-.03,2.82.03,4.73,1.33.19-.01.39,0,.57-.04,4.06-1.13,8.07-1.13,12.02-.66-.05-.07-.09-.14-.14-.21-.84-1.18-2.48-2.12-4.92-2.82,2.7-.29,4.5-1.18,5.42-2.65.92-1.47,1.38-4.35,1.38-8.63,0-4.69-.65-8.11-1.95-10.25s-2.98-3.47-5.04-3.99c-2.06-.52-6-.78-11.82-.78h-8.73v29.38c1.01-.09,2.01-.2,3.02-.28,1.82-.15,3.65-.36,5.46-.38ZM110.74,10.57c1.43,0,2.41.27,2.94.82.54.54.81,1.69.81,3.43v3.02c0,2.42-.28,3.86-.83,4.3-.56.44-1.53.66-2.92.66v-12.24Z"/>
      <path class="cls-1" d="M104.07,39.21c-.36.12-.7.29-1.05.43-2.33.94-3.42,1.39-4.61,1.52v15.01h12.33v-16.4c-1.68-.75-3.69-.63-5.57-.84-.33-.04-.74.15-1.1.27Z"/>
      <path class="cls-1" d="M123.07,39.13c-.53.2-1.05.45-1.51.74-1.82,1.13-3.74,1.49-5.98,1.38-.37-.02-.73-.05-1.08-.09v15.01h11.46v-14.51c0-1.29,0-2.41-.03-3.41-.05,0-.09.01-.14.02-.92.14-1.82.53-2.71.86Z"/>
      <path class="cls-1" d="M140.39,29.66c3.19-.45,6.1-.14,8.39,1.6.66.5,1.34.97,1.98,1.43v-10.08h-7.71v-10.43h8.23V1.16h-20.57v29.89c1.49-.03,2.99-.18,4.52-.5,1.7-.36,3.42-.65,5.15-.89Z"/>
      <path class="cls-1" d="M136.76,39.21c-.99.12-1.91.03-2.77-.28-.25-.09-.52-.16-.78-.24-1.21-.36-1.94-.61-2.49-.76v18.25h21.39v-11.01h-9.05v-6.71c-.09.01-.18.02-.26.04-2,.32-4.02.47-6.03.72Z"/>
      <path class="cls-1" d="M175.54,37.77c-.48.04-.96.11-1.44.21-.92.19-1.84.31-2.75.39v3.34c0,2.74-.11,4.48-.34,5.22s-.73,1.1-1.51,1.1c-.68,0-1.14-.33-1.36-1-.22-.67-.34-2.2-.34-4.6v-4.06c-.37-.04-.75-.06-1.12-.12-1.29-.21-2.42,0-3.59.58-1.17.58-2.43,1.04-3.74,1.59-1.12-.32-2.27-.6-3.37-.97-.16-.05-.32-.09-.47-.14.04,3.14.13,5.36.26,6.64.2,1.94.83,3.78,1.9,5.52,1.07,1.75,2.7,3.16,4.86,4.25,2.17,1.09,4.67,1.63,7.5,1.63,2.56,0,4.78-.46,6.67-1.38,1.88-.92,3.4-2.27,4.56-4.04s1.85-3.51,2.08-5.2c.22-1.58.34-4.27.35-8.04-2.43-1.27-5.26-1.14-8.15-.91Z"/>
      <path class="cls-1" d="M176.43,32.74c1.49-.35,2.85-.28,4.08.39.97.53,2.04.85,3.18,1.01V1.16h-12.33v31.54c1.61.43,3.3.46,5.07.05Z"/>
      <path class="cls-1" d="M161.57,32.97c1.32-.03,2.69-.29,3.99-.6.77-.18,1.52-.29,2.25-.31V1.16h-12.33v31.83c2.04.02,4.07.03,6.1-.02Z"/>
      <path class="cls-1" d="M211.95,42.15c-2.48-.28-4.95-.57-7.4-.93v14.96h11.46v-14.21c-1.4.23-2.73.33-4.05.18Z"/>
      <path class="cls-1" d="M193.45,40.71c-1.56-.54-3.25-.77-4.98-.88v16.35h12.33v-15.25c-.5.02-1,.07-1.5.17-2.08.41-4,.25-5.85-.38Z"/>
      <path class="cls-1" d="M193.94,37.36c1.02.57,2.13.8,3.41.82,1.15.02,2.3,0,3.45-.1v-6.72c1.7,0,2.75.35,3.15,1.05.39.68.58,2.4.6,5.15.83,0,1.6.19,2.32.59.45.25.98.4,1.43.65,1.17.64,2.51.89,3.96.98.85.05,1.7.13,2.55.21.45.04.83.14,1.19.28-.02-3.62-.12-5.88-.3-6.75-.21-.99-.73-2.07-1.57-3.25-.84-1.18-2.48-2.12-4.92-2.82,2.7-.29,4.5-1.18,5.42-2.65.92-1.47,1.38-4.35,1.38-8.63,0-4.69-.65-8.11-1.95-10.25s-2.98-3.47-5.04-3.99c-2.06-.52-6-.78-11.82-.78h-8.73v33.54c.28.1.55.22.81.36,1.54.78,3.16,1.49,4.66,2.31ZM200.8,10.57c1.43,0,2.41.27,2.94.82.54.54.81,1.69.81,3.43v3.02c0,2.42-.28,3.86-.83,4.3-.56.44-1.53.66-2.92.66v-12.24Z"/>
    </g>
  </g>
</svg>