<?xml version="1.0" encoding="UTF-8"?>
<svg id="Calque_2" data-name="Calque 2" xmlns="http://www.w3.org/2000/svg" viewBox="0 0 239.42 67.12">
  <defs>
    <style>
      .cls-1 {
        fill: #f40202;
      }
    </style>
  </defs>
  <g id="Calque_1-2" data-name="Calque 1">
    <g>
      <path class="cls-1" d="M16.54,55.98c-.81.14-1.6.31-2.4.47l1.19,9.51h7.65l1.09-9.43c-.76-.13-1.53-.27-2.26-.48-1.71-.49-3.41-.4-5.26-.08Z"/>
      <path class="cls-1" d="M8.97,54.77c.64-.08,1.24-.23,1.82-.42v-24.68s2.92,23.31,2.92,23.31c.06-.04.13-.07.19-.11,3.28-2,7.01-2.85,10.92-2.85l2.45-21.2v21.11c1.69-.13,3.33-.44,4.94-1,1.95-.68,3.9-1.35,5.85-2.04V10.94h-16.05l-2.83,25.69-1.75-14c-.5-4.49-.99-8.39-1.46-11.7H0v49.07c1.74-.76,3.15-1.83,4.37-3.05,1.21-1.22,2.68-1.98,4.6-2.2Z"/>
      <path class="cls-1" d="M0,60.56v5.4h10.78v-8.77c-3.45.85-6.83,1.89-10.13,3.15-.21.08-.43.14-.65.21Z"/>
      <path class="cls-1" d="M30.78,53.01c-.3-.03-.63.02-1.16.04-.76.6-1.54,1.23-2.36,1.87v11.05h10.79v-12.76c-2.44.18-4.86.07-7.27-.19Z"/>
      <path class="cls-1" d="M61.47,41.45l7.82-30.51h-11.33c-1.61,8.58-2.75,15.81-3.44,21.68-.23-3.71-1.22-10.94-3-21.68h-11.33l8.65,35.03c1.75-.18,3.48-.68,5.21-1.27,2.6-.89,5.1-1.93,7.41-3.25Z"/>
      <path class="cls-1" d="M56.23,51.42c-.82.41-1.68.79-2.54,1.14-1.61.67-3.22,1.05-4.82,1.09v12.32h11.43v-16.07c-.29-.05-.58-.1-.88-.15-1.03.54-2.09,1.13-3.19,1.68Z"/>
      <path class="cls-1" d="M80.1,39.72c1.65.22,3.32.16,5.03-.1,2.21-.34,4.43-.57,6.66-.78,1.12-.11,2.23-.24,3.33-.43-1.82-2.11-4.83-4.62-9.07-7.54-1.92-1.31-3.08-2.43-3.49-3.36-.43-.93-.64-2.31-.64-4.15,0-1.43.19-2.49.57-3.2s.94-1.05,1.68-1.05c.68,0,1.17.26,1.46.78.29.52.44,1.73.44,3.64v4.08h11.46v-2.18c0-4.37-.37-7.47-1.1-9.3-.73-1.82-2.23-3.34-4.48-4.54-2.26-1.2-4.99-1.8-8.19-1.8-2.93,0-5.43.55-7.5,1.65-2.07,1.1-3.57,2.62-4.5,4.57s-1.39,5.03-1.39,9.24c0,2.92.33,5.32.98,7.21.65,1.88,1.48,3.35,2.48,4.42.6.64,1.58,1.52,2.93,2.63,1.12,0,2.24.08,3.34.22Z"/>
      <path class="cls-1" d="M88.37,46.44c-.87.27-1.73.51-2.59.71.7,1.05,1.05,3.11,1.05,6.21,0,1.47-.2,2.58-.6,3.33s-1.01,1.12-1.83,1.12-1.39-.29-1.71-.88c-.32-.59-.48-1.91-.48-3.98v-5.23c-1.44.11-2.88.07-4.36-.2-1-.18-1.85.04-2.71.51-.72.39-1.56.65-2.23,1.08-.71.46-1.43.79-2.16,1.03.02,3.98.38,7.07,1.08,9.26.72,2.24,2.25,4.09,4.58,5.54s5.15,2.18,8.45,2.18c3.01,0,5.64-.63,7.91-1.89,2.27-1.26,3.79-2.81,4.58-4.67s1.19-4.75,1.19-8.67c0-2.2-.13-4.14-.36-5.85-3.18-1.03-6.58-.61-9.82.39Z"/>
      <path class="cls-1" d="M113.69,45.49c-.4.13-.77.32-1.16.48-2.47,1-3.67,1.49-4.93,1.66v18.34h12.33v-20.23c-1.6-.41-3.37-.36-5.04-.55-.36-.04-.82.17-1.21.3Z"/>
      <path class="cls-1" d="M116.8,35.22c1.69-.02,2.46,0,3.14.24v-13.5h7.32v-11.01h-26.95v11.01h7.29v13.98c1.06-.1,2.12-.21,3.18-.3,2.01-.16,4.02-.4,6.01-.42Z"/>
      <polygon class="cls-1" points="145.63 9.21 140.48 0 130.05 0 139.69 9.21 145.63 9.21"/>
      <path class="cls-1" d="M137.58,44.46c-1.02.16-2.01.58-2.98.94-.59.22-1.15.5-1.67.82-.92.57-1.87.96-2.86,1.2v18.54h21.39v-11.01h-9.05v-11.02c-1.04-.19-1.66.05-4.83.53Z"/>
      <path class="cls-1" d="M137.67,36.14c3.44.51,6.82.55,10.33-.18.7-.15,1.41-.28,2.12-.41v-3.17h-7.71v-10.43h8.23v-11.01h-20.57v24.64c2.55-.05,5.09.18,7.59.55Z"/>
      <path class="cls-1" d="M178.65,45.05c-1.29.64-2.67,1.14-4.12,1.75-1.15-.33-2.33-.63-3.47-1,.02.57.03,1.19.03,1.88v18.28h11.46v-14.51c0-3.32-.06-5.67-.17-7.06-1.32-.17-2.51.05-3.73.66Z"/>
      <path class="cls-1" d="M160.67,44.67c-1.43-.32-2.86-.21-4.37.02-.43.07-.86.13-1.29.18v21.09h12.33v-20.83c-.26,0-.51-.01-.77,0-2.02.07-4-.03-5.9-.46Z"/>
      <path class="cls-1" d="M162.89,36.73c.87.66,1.78,1.28,2.6,1.87,3.9.02,7.69.1,11.48.02.6-.01,1.2-.08,1.81-.16-.81-.46-1.82-.87-3.02-1.21,2.7-.29,4.5-1.18,5.42-2.65.92-1.47,1.38-4.35,1.38-8.63,0-4.69-.65-8.11-1.95-10.25s-2.98-3.47-5.04-3.99c-2.06-.52-6-.78-11.82-.78h-8.73v23.89c2.98-.23,5.68.24,7.88,1.9ZM167.34,20.36c1.43,0,2.41.27,2.94.82.54.54.81,1.69.81,3.43v3.02c0,2.42-.28,3.86-.83,4.3-.56.44-1.53.66-2.92.66v-12.24Z"/>
      <path class="cls-1" d="M192.34,43.9c-.53.04-1.06.12-1.58.23-1.15.24-2.29.38-3.44.46v21.37h21.39v-11.01h-9.05v-10.73c-2.27-.67-4.78-.53-7.32-.33Z"/>
      <path class="cls-1" d="M193.32,38.37c1.63-.38,3.14-.3,4.49.43,1.71.93,3.68,1.33,5.86,1.25,1.4-.06,2.59.28,3.69.82v-8.48h-7.71v-10.43h8.23v-11.01h-20.57v27.28c1.9.59,3.89.64,5.99.15Z"/>
      <path class="cls-1" d="M237.28,40.17c-1.43-2.42-4.88-5.53-10.37-9.31-1.92-1.31-3.08-2.43-3.49-3.36-.43-.93-.64-2.31-.64-4.15,0-1.43.19-2.49.57-3.2s.94-1.05,1.68-1.05c.68,0,1.17.26,1.46.78.29.52.44,1.73.44,3.64v4.08h11.46v-2.18c0-4.37-.37-7.47-1.1-9.3-.73-1.82-2.23-3.34-4.48-4.54-2.26-1.2-4.99-1.8-8.19-1.8-2.93,0-5.43.55-7.5,1.65-2.07,1.1-3.57,2.62-4.5,4.57s-1.39,5.03-1.39,9.24c0,2.92.33,5.32.98,7.21.65,1.88,1.48,3.35,2.48,4.42,1,1.07,3.03,2.78,6.09,5.13.85.65,1.61,1.24,2.29,1.79,1.39-.25,2.62-.08,3.74.54.49.27,1.08.45,1.58.72,1.28.7,2.76.98,4.36,1.07.94.05,1.87.15,2.81.23,1.43.12,2.42.69,3.26,1.78-2.29.52-4.34.81-6.4.58-1.78-.2-3.55-.41-5.32-.64.4,1.17.6,2.92.6,5.27,0,1.47-.2,2.58-.6,3.33s-1.01,1.12-1.83,1.12-1.39-.29-1.71-.88c-.32-.59-.48-1.91-.48-3.98v-5.41c-1.51-.2-3.02-.29-4.58.02-2.28.45-4.4.28-6.44-.42-.14-.05-.29-.08-.44-.12v2.84c0,4.12.36,7.31,1.08,9.55s2.25,4.09,4.58,5.54,5.15,2.18,8.45,2.18c3.01,0,5.64-.63,7.91-1.89,2.27-1.26,3.79-2.81,4.58-4.67s1.19-4.75,1.19-8.67c0-5.39-.71-9.3-2.14-11.73Z"/>
    </g>
  </g>
</svg>