<?xml version="1.0" encoding="UTF-8"?>
<svg id="Calque_2" data-name="Calque 2" xmlns="http://www.w3.org/2000/svg" viewBox="0 0 297.45 67.12">
  <defs>
    <style>
      .cls-1 {
        fill: none;
      }

      .cls-2 {
        fill: #f40202;
      }
    </style>
  </defs>
  <g id="Calque_1-2" data-name="Calque 1">
    <g>
      <path class="cls-1" d="M111.52,49.42c.25-4.15.51-8.12.77-11.91-.53.1-1.06.22-1.58.35.32,4.12.6,7.98.82,11.56Z"/>
      <path class="cls-1" d="M167.09,25.22c.13.01.25.02.38.04-.05-.68-.1-1.35-.14-2.05-.08.68-.16,1.35-.24,2.01Z"/>
      <path class="cls-1" d="M47.97,20.17c-.24-.71-.75-1.07-1.51-1.07-.64,0-1.14.29-1.48.87-.34.58-.51,2.28-.51,5.11v14.61c1.29-.45,2.58-.91,3.87-1.37v-13.24c0-2.56-.12-4.2-.37-4.91Z"/>
      <path class="cls-1" d="M10.31,48.71c.14-.02.27-.05.42-.07.51-.06,1-.16,1.48-.28l-1.9-7.41v7.76Z"/>
      <path class="cls-1" d="M197.05,35.94v16.26c0,2.4.11,3.94.34,4.6.22.67.68,1,1.36,1,.78,0,1.28-.37,1.51-1.1s.34-2.48.34-5.22v-14.98c-.71-.09-1.42-.2-2.11-.36-.48-.11-.96-.17-1.44-.21Z"/>
      <path class="cls-1" d="M77.43,43.16v9.04c0,2.4.11,3.94.34,4.6.22.67.68,1,1.36,1,.78,0,1.28-.37,1.51-1.1s.34-2.48.34-5.22v-7.93c-.79-.05-1.57-.13-2.36-.22-.39-.05-.79-.11-1.18-.17Z"/>
      <path class="cls-1" d="M44.47,50.78c0,3.19.11,5.17.34,5.91s.75,1.12,1.57,1.12,1.38-.43,1.61-1.29c.23-.86.35-2.91.35-6.15v-3.81c-1.3.15-2.58.24-3.87.26v3.96Z"/>
      <path class="cls-1" d="M165.76,37.26c-.37,3.68-.64,6.71-.8,9.07h4.25c-.3-3-.6-6.34-.9-10.02-.7.23-1.4.51-2.09.76-.16.06-.31.13-.46.2Z"/>
      <path class="cls-2" d="M10.31,48.71v-7.76l1.9,7.41c1.67-.42,3.16-1.18,4.61-2.06,3.27-1.99,6.9-3.06,10.72-3.4V10.94h-10.31v24.78l-6.91-24.78H0v44.03c1.98-.93,3.62-2.18,5.03-3.6,1.41-1.41,3.1-2.32,5.28-2.66Z"/>
      <path class="cls-2" d="M0,55.7v10.27h10.31v-13.65c-3.35.92-6.64,2-9.88,3.23-.14.05-.29.09-.43.14Z"/>
      <path class="cls-2" d="M20.1,50.15c-2.38.41-4.73.9-7.05,1.47l3.68,14.35h10.81v-15.48c-.32-.07-.63-.15-.93-.23-2.12-.61-4.23-.49-6.51-.1Z"/>
      <path class="cls-2" d="M44.47,39.69v-14.61c0-2.83.17-4.54.51-5.11.34-.58.83-.87,1.48-.87.76,0,1.26.36,1.51,1.07.24.71.37,2.35.37,4.91v13.24c.61-.22,1.23-.43,1.84-.65,1.54-.56,3.03-.86,4.56-.39,2,.63,3.98.68,5.93.42v-3.96c0-5.66-.12-9.63-.35-11.9s-.97-4.36-2.2-6.29-2.86-3.37-4.88-4.33c-2.02-.96-4.3-1.44-6.84-1.44-2.68,0-5.02.51-7.03,1.53s-3.61,2.48-4.79,4.38-1.88,4.01-2.11,6.3c-.22,2.3-.34,6.21-.34,11.74v8.99c2.53-.1,4.95-.49,7.35-1.32,1.66-.58,3.32-1.15,4.99-1.73Z"/>
      <path class="cls-2" d="M55.54,46.55c-1.52-.53-3.24-.65-4.97-.33-.75.14-1.5.24-2.24.33v3.81c0,3.24-.12,5.29-.35,6.15-.23.86-.77,1.29-1.61,1.29s-1.34-.37-1.57-1.12-.34-2.72-.34-5.91v-3.96c-2.26.04-4.5-.1-6.74-.34-.37-.04-.78.02-1.43.04-1.29,1.03-2.65,2.1-4.09,3.25.06,2.27.15,4.05.28,5.29.23,2.27.97,4.36,2.2,6.29s2.86,3.37,4.88,4.33c2.02.96,4.3,1.44,6.84,1.44,2.68,0,5.02-.51,7.03-1.53s3.61-2.48,4.79-4.38,1.88-4,2.11-6.3c.16-1.68.27-4.24.31-7.65-1.7.11-3.4-.1-5.1-.7Z"/>
      <path class="cls-2" d="M90.59,29.89c.91-.07,1.82-.1,2.72-.12V10.94h-12.33v19.5c.32-.03.64-.06.98-.06,2.86,0,5.76-.27,8.64-.48Z"/>
      <path class="cls-2" d="M76.05,31.98c.46-.26.91-.5,1.38-.7V10.94h-12.33v25.71c.48-.15.96-.31,1.44-.47,3.34-1.14,6.56-2.49,9.52-4.2Z"/>
      <path class="cls-2" d="M89.88,41.65c-2.82,1.81-5.83,2.11-8.9,1.91v7.93c0,2.74-.11,4.48-.34,5.22s-.73,1.1-1.51,1.1c-.68,0-1.14-.33-1.36-1-.22-.67-.34-2.2-.34-4.6v-9.04c-1.37-.21-2.76-.48-4.27-.74-1.27.67-2.59,1.4-3.94,2.08-1.02.51-2.08.97-3.15,1.42-.32.14-.65.25-.97.37.03,4.65.12,7.81.28,9.44.2,1.94.83,3.78,1.9,5.52,1.07,1.75,2.7,3.16,4.86,4.25,2.17,1.09,4.67,1.63,7.5,1.63,2.56,0,4.78-.46,6.67-1.38,1.88-.92,3.4-2.27,4.56-4.04s1.85-3.51,2.08-5.2c.23-1.69.35-4.62.35-8.79v-7.73c-.23.09-.45.2-.68.32-.89.49-1.93.81-2.75,1.34Z"/>
      <path class="cls-2" d="M104.99,29.9c1.66-.25,3.33-.45,5-.63-.49-5.68-1.06-11.77-1.71-18.33h-13.01l2.46,18.98c.34.03.69.06,1.03.1,2.04.27,4.11.2,6.23-.12Z"/>
      <path class="cls-2" d="M123.55,26.63c.71-.31,1.42-.5,2.15-.66l1.71-15.03h-13.01l-.86,10.23c-.22,2.48-.43,5.09-.64,7.79.11-.01.21-.02.32-.03,3.56-.35,7.06-.89,10.32-2.3Z"/>
      <path class="cls-2" d="M112.29,37.51c-.26,3.79-.52,7.75-.77,11.91-.22-3.58-.49-7.44-.82-11.56-.57.14-1.14.3-1.7.48-3.38,1.04-6.64,1.74-9.96,1.65l3.36,25.98h18.74l3.08-26.99c-.57-.17-1.12-.37-1.63-.6-3.29-1.47-6.82-1.54-10.3-.88Z"/>
      <path class="cls-2" d="M141.83,24.55v-2.59h8.23v-11.01h-20.57v14.62c2.41-.09,4.83-.41,7.25-.6,1.69-.14,3.39-.31,5.08-.42Z"/>
      <path class="cls-2" d="M140.34,37.17c-.49.17-.95.39-1.43.59-4.92,1.99-5.77,2.35-9.42,2.04v26.17h21.39v-11.01h-9.05v-12.1h7.71v-4.87c-2.31-1.07-5.1-.89-7.69-1.19-.45-.05-1.01.21-1.5.37Z"/>
      <path class="cls-2" d="M167.09,25.22c.08-.66.16-1.33.24-2.01.05.7.1,1.37.14,2.05.85.1,1.7.2,2.54.33,2.57.38,5.1.54,7.66.42l-1.93-15.07h-17.83l-1.63,14.27c3.64-.47,7.24-.38,10.81,0Z"/>
      <path class="cls-2" d="M169.91,35.89c-.54.08-1.07.23-1.6.41.3,3.68.6,7.02.9,10.02h-4.25c.16-2.36.42-5.38.8-9.07-.56.24-1.1.5-1.6.81-2.47,1.54-5.09,2.03-8.15,1.88-.48-.02-.94-.06-1.4-.11l-2.99,26.13h12.75l.74-9.89h4.41l.66,9.89h12.6l-3.82-29.84c-4.45-1.38-3.04-1.15-9.06-.23Z"/>
      <path class="cls-2" d="M205.79,36.72c-1.76.06-3.5,0-5.19-.21v14.98c0,2.74-.11,4.48-.34,5.22s-.73,1.1-1.51,1.1c-.68,0-1.14-.33-1.36-1-.22-.67-.34-2.2-.34-4.6v-16.26c-1.3-.1-2.61.02-3.97.24-2.72.43-5.48.64-8.21.98-.05,0-.1,0-.15.01v6.33c0,6.21.1,10.28.29,12.22.2,1.94.83,3.78,1.9,5.52,1.07,1.75,2.7,3.16,4.86,4.25,2.17,1.09,4.67,1.63,7.5,1.63,2.56,0,4.78-.46,6.67-1.38,1.88-.92,3.4-2.27,4.56-4.04s1.85-3.51,2.08-5.2c.23-1.69.35-4.62.35-8.79v-9.69c-.63-.18-1.26-.36-1.88-.57-1.66-.56-3.41-.81-5.26-.74Z"/>
      <path class="cls-2" d="M204.45,28.64c2.87.01,5.68.05,8.48.06V10.94h-12.33v14.96c.21.14.43.26.63.42,1.07.81,2.2,1.58,3.22,2.31Z"/>
      <path class="cls-2" d="M197.05,24.36v-13.42h-12.33v14.06c1.69-.32,3.39-.61,5.09-.85,2.59-.36,5.03-.35,7.24.21Z"/>
      <path class="cls-2" d="M225.63,35.83c-.96-.16-1.86-.13-2.74.05v30.09h12.33v-30.39c-3.23.62-6.44.77-9.59.25Z"/>
      <path class="cls-2" d="M230.94,28c1.38.5,2.81.75,4.29.76v-6.8h7.32v-11.01h-26.95v11.01h7.29v6.16c.4-.08.81-.17,1.2-.27,2.41-.57,4.67-.64,6.84.14Z"/>
      <path class="cls-2" d="M265.4,35.56v-3.17h-7.19c1.53.73,3.07,1.45,4.53,2.26.84.46,1.72.74,2.66.91Z"/>
      <path class="cls-2" d="M251.71,30.43c1.78-.07,3.28.36,4.69,1.07.43.22.86.43,1.3.64v-10.18h8.23v-11.01h-20.57v18.38c1.9.83,4.03,1.19,6.35,1.1Z"/>
      <path class="cls-2" d="M254.59,37.96c-1.98-.11-3.87-.44-5.4-1.32-1.2-.7-2.49-1.11-3.83-1.36v30.69h21.39v-11.01h-9.05v-12.1h7.71v-2.91c-1.13-.12-2.24-.37-3.33-.74-2.33-.8-4.89-1.11-7.49-1.25Z"/>
      <polygon class="cls-2" points="265.37 0 254.94 0 249.79 9.21 255.73 9.21 265.37 0"/>
      <path class="cls-2" d="M295.31,40.17c-1.43-2.42-4.88-5.53-10.37-9.31-1.92-1.31-3.08-2.43-3.49-3.36-.43-.93-.64-2.31-.64-4.15,0-1.43.19-2.49.57-3.2s.94-1.05,1.68-1.05c.68,0,1.17.26,1.46.78.29.52.44,1.73.44,3.64v4.08h11.46v-2.18c0-4.37-.37-7.47-1.1-9.3-.73-1.82-2.23-3.34-4.48-4.54-2.26-1.2-4.99-1.8-8.19-1.8-2.93,0-5.43.55-7.5,1.65-2.07,1.1-3.57,2.62-4.5,4.57s-1.39,5.03-1.39,9.24c0,2.92.33,5.32.98,7.21.44,1.25.96,2.31,1.54,3.2,1.14-.09,2.28-.24,3.41-.51,1.95-.47,3.61-.25,5.14.59.61.34,1.34.55,1.95.89,1.59.87,3.42,1.22,5.39,1.33,1.16.07,2.32.18,3.47.28,1.77.15,2.99.86,4.03,2.21-2.83.65-5.37,1.01-7.92.72-3.57-.4-7.14-.81-10.66-1.35-.23-.04-.46-.07-.69-.1.83.68,1.8,1.44,2.9,2.28,3.07,2.33,4.99,4,5.77,5,.76,1,1.14,3.12,1.14,6.36,0,1.47-.2,2.58-.6,3.33s-1.01,1.12-1.83,1.12-1.39-.29-1.71-.88c-.32-.59-.48-1.91-.48-3.98v-6.7h-11.46v3.6c0,4.12.36,7.31,1.08,9.55s2.25,4.09,4.58,5.54,5.15,2.18,8.45,2.18c3.01,0,5.64-.63,7.91-1.89,2.27-1.26,3.79-2.81,4.58-4.67s1.19-4.75,1.19-8.67c0-5.39-.71-9.3-2.14-11.73Z"/>
      <path d="M258.21,32.39c-.17-.08-.35-.17-.52-.25v.25h.52Z"/>
      <path d="M149.53,37.99s.03.01.05.02c-.02-.01-.03-.02-.05-.04v.02Z"/>
      <path d="M149.53,37.97h0s.03.02.05.04c.03.01.06.02.09.04,0,0-.13-.07-.14-.07Z"/>
      <polygon points="149.53 37.97 149.53 37.97 149.53 37.97 149.53 37.97"/>
    </g>
  </g>
</svg>