<?xml version="1.0" encoding="UTF-8"?>
<svg id="Calque_2" data-name="Calque 2" xmlns="http://www.w3.org/2000/svg" viewBox="0 0 308.64 57.34">
  <defs>
    <style>
      .cls-1 {
        fill: #f2e438;
      }
    </style>
  </defs>
  <g id="Calque_1-2" data-name="Calque 1">
    <g>
      <path class="cls-1" d="M12.14,37.99c.07,0,.13-.02.19-.03v-3.94h3.31c2.7,0,4.88-.43,6.55-1.29,1.67-.86,2.82-2.1,3.44-3.7s.94-4.17.94-7.68v-4.79c0-3.44-.16-5.99-.48-7.63-.32-1.64-.94-3.04-1.85-4.2s-2.27-2.04-4.07-2.65-4.39-.92-7.75-.92H0v43.84c2.57-.97,4.56-2.48,6.28-4.2,1.54-1.55,3.41-2.52,5.86-2.8ZM12.33,10.57c1.6,0,2.66.28,3.16.85.51.57.76,1.79.76,3.67v4.52c0,2.04-.22,3.38-.66,4.03-.44.65-1.23.97-2.36.97-.25,0-.56-.01-.91-.03v-14Z"/>
      <path class="cls-1" d="M.03,45.6s-.02,0-.03,0v10.58h12.33v-14.57c-3.66.98-7.26,2.14-10.79,3.49-.49.19-1.01.35-1.52.5Z"/>
      <path class="cls-1" d="M39.6,31.18c.42-4.57,1.07-10.49,1.93-17.76.43,6.28.86,11.85,1.29,16.75,3.31-1.14,6.62-2.29,9.9-3.47.16-.06.32-.11.48-.16l-3.25-25.38h-17.83l-3.55,31.01c1.32-.16,2.67-.24,4.03-.22,2.41.02,4.72-.2,6.99-.76Z"/>
      <path class="cls-1" d="M43.36,36.04c.02.16.03.33.05.49h-4.25c.02-.25.03-.51.05-.78-.22.01-.47.03-.78.04-1.82,1.45-3.76,2.99-5.88,4.67-1.35-.27-2.78-.45-4.09-.83-.24-.07-.49-.13-.73-.18l-1.91,16.72h12.75l.74-9.89h4.41l.66,9.89h12.6l-2.67-20.83c-.4.03-.8.07-1.2.15-3.29.61-6.54.72-9.77.54Z"/>
      <path class="cls-1" d="M69.54,25.17c3.44-1.18,6.75-2.56,9.79-4.32,1.87-1.08,3.77-1.65,6.07-1.65.38,0,.76-.02,1.15-.02.06-.91.09-1.91.09-3,0-4.69-.65-8.11-1.95-10.25s-2.98-3.47-5.04-3.99c-2.06-.52-6-.78-11.82-.78h-8.73v25.55c3.53.59,6.99-.35,10.44-1.53ZM71.43,10.57c1.43,0,2.41.27,2.94.82.54.54.81,1.69.81,3.43v3.02c0,2.42-.28,3.86-.83,4.3-.56.44-1.53.66-2.92.66v-12.24Z"/>
      <path class="cls-1" d="M59.09,36.09v20.09h12.33v-22.04c-.78.36-1.56.71-2.36,1.04-3.33,1.39-6.64,1.84-9.97.91Z"/>
      <path class="cls-1" d="M81.96,32.52c-1.82-.23-3.61-.6-5.6-.93-.57.3-1.15.62-1.74.93.37.76.56,2.54.56,5.38v18.28h11.46v-14.51c0-4.44-.1-7.15-.31-8.14-.05-.23-.12-.47-.2-.71-1.38,0-2.77-.12-4.16-.29Z"/>
      <path class="cls-1" d="M102.68,18.84c2.05.27,4.12.2,6.24-.11v-6.56h7.32V1.16h-26.95v11.01h7.29v6.41c2.05-.07,4.08,0,6.09.26Z"/>
      <path class="cls-1" d="M99.82,28.77c-1.19-.22-2.21.03-3.23.55v26.87h12.33v-27.68c-3.02.63-6.01.83-9.1.27Z"/>
      <path class="cls-1" d="M131.59,28.62c-1.54-.17-3.1-.59-4.41-1.18-2.61-1.17-5.36-1.47-8.12-1.24v29.98h21.39v-11.01h-9.05v-12.1h7.71v-4.46c-2.08.58-3.54.44-7.51.01Z"/>
      <path class="cls-1" d="M131.4,14.47v-2.31h8.23V1.16h-20.57v16.4c3.14-.37,6.22-.96,9.11-2.21,1.05-.46,2.12-.72,3.22-.87Z"/>
      <path class="cls-1" d="M156.03,14.96c.27-.02.55,0,.79-.06.41-.11.82-.2,1.23-.3l-3.75-13.45h-10.31v12.28c1.81-.16,3.61-.32,5.41-.34,3.96-.05,3.95.04,6.63,1.86Z"/>
      <path class="cls-1" d="M161.56,29.05c-2.65-.13-4.87-.56-6.62-2-2.38-1.13-5.27-.93-7.96-1.25-.46-.05-1.04.22-1.54.38-.5.17-.97.4-1.45.6v29.4h10.31v-25.01l6.42,25.01h10.81v-29.88c-.55.24-1.1.5-1.59.81-2.54,1.58-5.24,2.09-8.38,1.93Z"/>
      <path class="cls-1" d="M171.53,13.76V1.16h-10.31v12.83c3.47-.51,6.91-.51,10.31-.23Z"/>
      <path class="cls-1" d="M191.24,26.18c-.3.04-.6.06-.9.06.31,3.79.62,7.22.92,10.29h-4.25c.18-2.67.49-6.2.95-10.57-.2-.06-.41-.11-.61-.18-.35-.13-.72-.23-1.09-.34-5.45-1.63-4.08-1.6-8.98-.8l-3.61,31.53h12.75l.74-9.89h4.41l.66,9.89h12.6l-3.99-31.17c-.39.05-.78.09-1.17.16-2.8.44-5.63.66-8.45,1.01Z"/>
      <path class="cls-1" d="M189.12,14.05c.07-.01.14-.03.21-.04.02-.2.05-.39.07-.58.01.19.03.37.04.56,2.28-.47,4.59-.87,6.89-1.19,1-.14,1.98-.22,2.94-.24l-1.46-11.4h-17.83l-1.53,13.41c3.54.33,7.05.23,10.67-.52Z"/>
      <path class="cls-1" d="M211.38,17.41c2.67.01,5.3.04,7.9.06V1.16h-12.33v13.14c.38.22.76.46,1.12.74,1.1.84,2.26,1.63,3.31,2.38Z"/>
      <path class="cls-1" d="M212.76,25.72c-1.98.07-3.92,0-5.81-.27v30.73h12.33v-29.36c-.37-.11-.75-.21-1.11-.34-1.71-.58-3.5-.83-5.41-.76Z"/>
      <path class="cls-1" d="M245.57,24.16c-.67.05-1.35.15-2.01.29-3.5.73-6.97.92-10.39.36-1.8-.3-3.39,0-5.03.81-1.23.61-2.54,1.13-3.9,1.68v28.88h12.33v-24.81c1.7,0,2.75.35,3.15,1.05.4.7.6,2.53.6,5.47v18.28h11.46v-14.51c0-4.44-.1-7.15-.31-8.14-.21-.99-.73-2.07-1.57-3.25-.84-1.18-2.48-2.12-4.92-2.82,2.7-.29,4.5-1.18,5.42-2.65.15-.24.28-.53.41-.84-1.71-.06-3.47.05-5.24.19Z"/>
      <path class="cls-1" d="M231.59,16.6c1.73-.41,3.38-.56,4.98-.35v-5.69c1.43,0,2.41.27,2.94.82.54.54.81,1.69.81,3.43v2.41c2.07.45,4.23.41,6.49-.12,1.78-.41,3.43-.4,4.95.2,0-.37.02-.74.02-1.13,0-4.69-.65-8.11-1.95-10.25s-2.98-3.47-5.04-3.99c-2.06-.52-6-.78-11.82-.78h-8.73v16.3c.59,0,1.17,0,1.76-.02,1.85-.04,3.77-.4,5.59-.83Z"/>
      <path class="cls-1" d="M270.65,28.28c-2.4-.82-5.03-1.14-7.7-1.29-2.03-.11-3.98-.45-5.55-1.36-.28-.16-.56-.28-.85-.42v30.96h21.39v-11.01h-9.05v-12.1h7.71v-3.96c-2.06.12-4.03-.17-5.94-.83Z"/>
      <path class="cls-1" d="M276.11,24.74c.16,0,.32,0,.48,0v-2.14h-7.16c.64.32,1.28.65,1.91.99,1.44.79,2.99,1.12,4.78,1.15Z"/>
      <path class="cls-1" d="M259.99,19.25c1.83-.07,3.38.37,4.82,1.1,1.34.68,2.72,1.32,4.07,1.98v-10.17h8.23V1.16h-20.57v17.88c1.09.19,2.24.27,3.44.22Z"/>
      <path class="cls-1" d="M306.5,30.38c-1.43-2.42-4.88-5.53-10.37-9.31-1.92-1.31-3.08-2.43-3.49-3.36-.43-.93-.64-2.31-.64-4.15,0-1.43.19-2.49.57-3.2s.94-1.05,1.68-1.05c.68,0,1.17.26,1.46.78.29.52.44,1.73.44,3.64v4.08h11.46v-2.18c0-4.37-.37-7.47-1.1-9.3-.73-1.82-2.23-3.34-4.48-4.54-2.26-1.2-4.99-1.8-8.19-1.8-2.93,0-5.43.55-7.5,1.65-2.07,1.1-3.57,2.62-4.5,4.57s-1.39,5.03-1.39,9.24c0,2.92.33,5.32.98,7.21.23.66.49,1.25.76,1.81.65-.09,1.31-.21,1.96-.37,2-.48,3.71-.26,5.29.61.63.35,1.38.57,2.01.91,1.63.89,3.52,1.25,5.54,1.37,1.2.07,2.38.19,3.57.29,1.82.16,3.08.88,4.15,2.27-2.91.67-5.52,1.04-8.14.74-3.56-.4-7.12-.81-10.63-1.34,1.05.9,2.4,1.98,4.07,3.26,3.07,2.33,4.99,4,5.77,5,.76,1,1.14,3.12,1.14,6.36,0,1.47-.2,2.58-.6,3.33s-1.01,1.12-1.83,1.12-1.39-.29-1.71-.88c-.32-.59-.48-1.91-.48-3.98v-6.7h-11.46v3.6c0,4.12.36,7.31,1.08,9.55s2.25,4.09,4.58,5.54,5.15,2.18,8.45,2.18c3.01,0,5.64-.63,7.91-1.89,2.27-1.26,3.79-2.81,4.58-4.67s1.19-4.75,1.19-8.67c0-5.39-.71-9.3-2.14-11.73Z"/>
    </g>
  </g>
</svg>