<?xml version="1.0" encoding="UTF-8"?>
<svg id="Calque_2" data-name="Calque 2" xmlns="http://www.w3.org/2000/svg" viewBox="0 0 136.44 57.34">
  <defs>
    <style>
      .cls-1 {
        fill: #f40202;
      }
    </style>
  </defs>
  <g id="Calque_1-2" data-name="Calque 1">
    <g>
      <path class="cls-1" d="M25.02,39.35c.7-.25,1.39-.4,2.09-.18.33.1.66.16.99.2-.21-3.99-.89-7.01-2.06-9-1.43-2.42-4.88-5.53-10.37-9.31-1.92-1.31-3.08-2.43-3.49-3.36-.43-.93-.64-2.31-.64-4.15,0-1.43.19-2.49.57-3.2s.94-1.05,1.68-1.05c.68,0,1.17.26,1.46.78.29.52.44,1.73.44,3.64v4.08h11.46v-2.18c0-4.37-.37-7.47-1.1-9.3-.73-1.82-2.23-3.34-4.48-4.54-2.26-1.2-4.99-1.8-8.19-1.8-2.93,0-5.43.55-7.5,1.65-2.07,1.1-3.57,2.62-4.5,4.57S0,11.25,0,15.46c0,2.92.33,5.32.98,7.21.65,1.88,1.48,3.35,2.48,4.42,1,1.07,3.03,2.78,6.09,5.13,3.07,2.33,4.99,4,5.77,5,.6.79.96,2.28,1.09,4.46,1.28-.02,2.51-.19,3.72-.61,1.63-.57,3.27-1.13,4.9-1.72Z"/>
      <path class="cls-1" d="M25.21,43.27c-1.99.37-3.94.33-5.88.11-.17-.02-.36,0-.65.02-.72.57-1.5,1.19-2.32,1.84-.1.67-.25,1.23-.48,1.65-.4.75-1.01,1.12-1.83,1.12s-1.39-.29-1.71-.88c-.21-.39-.36-1.12-.43-2.16-.21.02-.42.05-.64.09-3.11.53-6.1,1.37-9,2.48-.22.08-.45.15-.67.22-.05.02-.12,0-.3,0,.12-.12.19-.22.29-.26,1.15-.43,2.04-1.1,2.8-1.87.69-.69,1.52-1.12,2.61-1.25,1.05-.12,1.94-.55,2.79-1.07.66-.4,1.36-.72,2.08-.97v-5.87H.38v3.6c0,4.12.36,7.31,1.08,9.55s2.25,4.09,4.58,5.54,5.15,2.18,8.45,2.18c3.01,0,5.64-.63,7.91-1.89,2.27-1.26,3.79-2.81,4.58-4.67.69-1.61,1.07-4,1.16-7.17-.23-.05-.45-.11-.68-.19-.7-.24-1.48-.3-2.27-.15Z"/>
      <path class="cls-1" d="M58.17,39.68c-1.98-.89-4.16-.66-6.22-.02-1.17.36-2.3.63-3.44.72v.66c0,3.02-.14,4.94-.42,5.76-.28.82-.88,1.23-1.8,1.23s-1.57-.41-1.85-1.22-.41-2.56-.41-5.23v-.81c-.29.13-.58.25-.83.41-1.62,1.04-3.38.99-5.16.77-.81-.1-1.6-.27-2.49-.42-.58.31-1.18.64-1.81.95-.47.23-.95.44-1.44.65-.12.05-.24.09-.35.13.19,2.22.48,4.05.89,5.49.76,2.69,2.31,4.79,4.66,6.3s5.32,2.28,8.94,2.28,6.4-.9,8.77-2.69c2.37-1.79,3.91-3.88,4.6-6.26.52-1.78.84-4.48.97-8.11-.2-.02-.41-.04-.64-.07-.69-.07-1.38-.26-1.96-.53Z"/>
      <path class="cls-1" d="M36.87,36.75c.83-.48,1.68-.73,2.7-.73,1.31,0,2.64-.13,3.95-.22.17-.01.34-.02.51-.03v-19.75c0-2.79.14-4.6.41-5.44.27-.84.92-1.26,1.93-1.26.9,0,1.48.35,1.74,1.03.26.69.4,2.43.4,5.21v9.56h12.33v-5.23c0-5.14-.37-8.92-1.11-11.35s-2.29-4.46-4.66-6.09-5.36-2.44-8.99-2.44c-2.68,0-5.04.53-7.1,1.58-2.06,1.05-3.67,2.5-4.83,4.33-1.16,1.84-1.86,3.74-2.09,5.73-.23,1.98-.35,4.96-.35,8.92v16.08c0,.79.01,1.55.03,2.29.26-.08.52-.17.79-.25,1.53-.52,3-1.14,4.36-1.92Z"/>
      <path class="cls-1" d="M73.48,40.4c-1.18-.06-2.16-.25-2.94-.89-1.06-.51-2.35-.42-3.55-.56-.2-.02-.46.1-.68.17-.23.08-.44.18-.66.27-.13.05-.26.1-.38.15v16.64h12.33v-16.87c-.14.07-.27.14-.4.22-1.13.7-2.33.93-3.73.86Z"/>
      <path class="cls-1" d="M71.02,34.13c.12,0,.24,0,.35-.03,2.1-.59,4.18-.68,6.24-.53V1.16h-12.33v32.33c.93-.08,1.87-.17,2.79-.18,1.76-.02,1.76.02,2.95.83Z"/>
      <path class="cls-1" d="M85.74,33.72c1.06-.22,2.13-.41,3.21-.56,1.99-.28,3.8-.09,5.23,1,.49.37,1.01.72,1.47,1.06.35,0,.7,0,1.05,0v-6.34h-15.56v5.07c1.52.13,3.03.08,4.59-.24Z"/>
      <path class="cls-1" d="M109.98,38.35c-1.56.32-3.1.41-4.62.16-.8-.13-1.51,0-2.24.36-.73.36-1.51.65-2.33.99-.18-.05-.37-.1-.56-.15v16.47h12.33v-18.05c-.55,0-1.12.05-1.68.09-.3.02-.6.07-.9.13Z"/>
      <path class="cls-1" d="M104.65,34.86c1.1-.26,2.14-.29,3.13.07,1.15.42,2.36.46,3.64.16.39-.09.77-.12,1.13-.11v-1.9h7.62v-10.47h-7.62v-10.43h8.55V1.16h-20.89v34.08c.65,0,1.29,0,1.94,0,.82-.02,1.68-.18,2.49-.37Z"/>
      <path class="cls-1" d="M128.05,38.2c.89-.21,1.65-.11,2.35.27.28.15.61.25.89.41.73.4,1.57.56,2.47.61.53.03,1.06.08,1.59.13.42.04.77.14,1.08.32V1.16h-12.33v37.3c.12,0,.24.02.37.02,1.2.02,2.4,0,3.58-.28Z"/>
      <path class="cls-1" d="M133.58,40.95c-1.63-.18-3.27-.37-4.88-.62-1-.15-1.98-.25-3.01-.04-.55.11-1.07.14-1.59.13v15.76h12.33v-15.4c-.99.19-1.93.28-2.85.17Z"/>
    </g>
  </g>
</svg>