<?xml version="1.0" encoding="UTF-8"?>
<svg id="Calque_2" data-name="Calque 2" xmlns="http://www.w3.org/2000/svg" viewBox="0 0 242.72 57.34">
  <defs>
    <style>
      .cls-1 {
        fill: #f40202;
      }
    </style>
  </defs>
  <g id="Calque_1-2" data-name="Calque 1">
    <g>
      <path class="cls-1" d="M7.51,50.72c-.05.02-.12.01-.22,0v5.45h12.33v-9.18c-3.74.86-7.39,1.98-10.95,3.34-.38.14-.77.27-1.16.39Z"/>
      <path class="cls-1" d="M12.31,47.04c1.18-1.19,2.61-1.93,4.49-2.15,1.02-.12,1.95-.42,2.83-.81V12.17h7.32V1.16H0v11.01h7.29v38.24c.06-.06.12-.11.19-.14,1.97-.74,3.5-1.9,4.82-3.23Z"/>
      <path class="cls-1" d="M52.12,43.24c-1.2-.42-2.55-.51-3.91-.26-.81.15-1.61.26-2.41.33v12.87h12.33v-12.69c-2,.48-4,.46-6.01-.25Z"/>
      <path class="cls-1" d="M39.46,39.19c.88-.3,1.76-.61,2.64-.91v-5.21h3.69v3.92c.7-.25,1.4-.49,2.1-.74,1.21-.44,2.39-.68,3.59-.3,2.25.7,4.45.49,6.64-.07V1.16h-12.33v19.68h-3.69V1.16h-12.33v39.23c.89-.09,1.8-.14,2.71-.13,2.42.02,4.72-.28,6.98-1.06Z"/>
      <path class="cls-1" d="M36.95,43.21c-1.4,1.11-2.88,2.29-4.5,3.58-.89-.17-1.8-.32-2.68-.53v9.92h12.33v-12.73c-1.35-.03-2.69-.12-4.02-.27-.29-.03-.61.02-1.13.03Z"/>
      <path class="cls-1" d="M83.99,37.82c-.98-.18-1.8.04-2.64.5-.7.38-1.52.64-2.17,1.06,0,0-.01,0-.02.01v16.8h11.46v-14.51c0-1.53-.01-2.85-.04-3.97-2.19.42-4.35.53-6.59.12Z"/>
      <path class="cls-1" d="M70.3,40.7c-1.4-.17-2.76-.46-4.29-.72-.95.5-1.92,1.04-2.93,1.54v14.65h12.33v-15.41c-1.67.26-3.38.15-5.11-.07Z"/>
      <path class="cls-1" d="M72.93,30.49c2.26,0,4.54-.22,6.81-.38,2.18-.16,4.33-.18,6.44.1.86.11,1.72.15,2.59.12-.01-.02-.02-.03-.03-.05-.84-1.18-2.48-2.12-4.92-2.82,2.7-.29,4.5-1.18,5.42-2.65.92-1.47,1.38-4.35,1.38-8.63,0-4.69-.65-8.11-1.95-10.25s-2.98-3.47-5.04-3.99c-2.06-.52-6-.78-11.82-.78h-8.73v33.06c1.81-.71,3.56-1.51,5.21-2.47,1.43-.83,2.89-1.26,4.65-1.26ZM75.41,10.57c1.43,0,2.41.27,2.94.82.54.54.81,1.69.81,3.43v3.02c0,2.42-.28,3.86-.83,4.3-.56.44-1.53.66-2.92.66v-12.24Z"/>
      <path class="cls-1" d="M95.39,36.44v19.74h12.33v-18.56c-.98-.16-1.94-.44-2.77-.82-3.05-1.36-6.36-1.19-9.56-.36Z"/>
      <path class="cls-1" d="M105.72,27.54c.66-.29,1.33-.46,2.01-.59V1.16h-12.33v28.42c.73-.08,1.46-.16,2.19-.23,2.81-.27,5.56-.7,8.13-1.82Z"/>
      <path class="cls-1" d="M121.98,25.82c1.61-.02,2.37,0,3.03.22V1.16h-12.33v25.39c1.15-.1,2.29-.23,3.44-.32,1.96-.16,3.92-.39,5.87-.41Z"/>
      <path class="cls-1" d="M118.95,35.84c-.39.13-.75.31-1.13.46-2.63,1.06-3.78,1.54-5.15,1.66v18.22h19.83v-11.01h-7.5v-9.09c-1.55-.39-3.26-.34-4.88-.53-.35-.04-.79.17-1.18.29Z"/>
      <path class="cls-1" d="M142.26,34.84c-.99.15-1.96.57-2.91.92-.57.21-1.13.49-1.62.8-.72.45-1.46.78-2.23,1.02v18.6h19.83v-11.01h-7.5v-10.63c-1.73-.51-1.73-.29-5.57.3Z"/>
      <path class="cls-1" d="M147.83,27.07V1.16h-12.33v25.02c2.3,0,4.58.21,6.84.54,1.84.27,3.66.4,5.49.35Z"/>
      <path class="cls-1" d="M164.78,35.04c-1.39-.31-2.79-.21-4.26.02-.73.12-1.46.21-2.2.3v20.82h21.39v-11.01h-9.05v-9.68s-.08,0-.12,0c-1.97.07-3.9-.03-5.76-.45Z"/>
      <path class="cls-1" d="M166.94,27.3c.84.64,1.73,1.25,2.54,1.82,3.01.01,5.95.05,8.88.03v-6.55h-7.71v-10.43h8.23V1.16h-20.57v24.38c3.28-.4,6.26-.04,8.62,1.76Z"/>
      <path class="cls-1" d="M190.36,28.61c1.98.71,4.07.79,6.27.28,1.59-.37,3.06-.3,4.38.42,1.67.91,3.59,1.3,5.72,1.22.96-.04,1.81.12,2.61.39-.13-.21-.27-.42-.42-.64-.84-1.18-2.48-2.12-4.92-2.82,2.7-.29,4.5-1.18,5.42-2.65.92-1.47,1.38-4.35,1.38-8.63,0-4.69-.65-8.11-1.95-10.25s-2.98-3.47-5.04-3.99c-2.06-.52-6-.78-11.82-.78h-8.73v27.7c.58-.1,1.15-.22,1.71-.36,1.9-.45,3.68-.51,5.39.11ZM195.59,10.57c1.43,0,2.41.27,2.94.82.54.54.81,1.69.81,3.43v3.02c0,2.42-.28,3.86-.83,4.3-.56.44-1.53.66-2.92.66v-12.24Z"/>
      <path class="cls-1" d="M204.75,35.42c-1.7-.98-3.6-1.28-5.59-1.3.12.94.18,2.18.18,3.77v18.28h11.46v-14.51c0-2.07-.02-3.75-.07-5.07-.57-.06-1.14-.1-1.72-.14-1.56-.08-3.05-.34-4.25-1.04Z"/>
      <path class="cls-1" d="M186.18,34.79c-1.04-.17-1.99-.08-2.92.23v21.16h12.33v-21.88c-.48.04-.97.11-1.45.21-2.68.56-5.34.7-7.96.27Z"/>
      <path class="cls-1" d="M240.59,30.38c-1.43-2.42-4.88-5.53-10.37-9.31-1.92-1.31-3.08-2.43-3.49-3.36-.43-.93-.64-2.31-.64-4.15,0-1.43.19-2.49.57-3.2s.94-1.05,1.68-1.05c.68,0,1.17.26,1.46.78.29.52.44,1.73.44,3.64v4.08h11.46v-2.18c0-4.37-.37-7.47-1.1-9.3-.73-1.82-2.23-3.34-4.48-4.54-2.26-1.2-4.99-1.8-8.19-1.8-2.93,0-5.43.55-7.5,1.65-2.07,1.1-3.57,2.62-4.5,4.57s-1.39,5.03-1.39,9.24c0,2.92.33,5.32.98,7.21.65,1.88,1.48,3.35,2.48,4.42,1,1.07,3.03,2.78,6.09,5.13.89.68,1.67,1.29,2.37,1.86,1.03-.05,1.96.16,2.84.64.48.27,1.06.43,1.54.7,1.25.68,2.7.96,4.25,1.05.92.05,1.83.14,2.74.22,1.4.12,2.36.68,3.18,1.74-2.23.51-4.23.79-6.24.57-1.44-.16-2.87-.32-4.3-.5.36,1.17.54,2.85.54,5.08,0,1.47-.2,2.58-.6,3.33s-1.01,1.12-1.83,1.12-1.39-.29-1.71-.88c-.32-.59-.48-1.91-.48-3.98v-5.23s-.01,0-.02,0c-1.72-.26-3.41-.42-5.18-.07-2.22.44-4.27.27-6.26-.41v2.61c0,4.12.36,7.31,1.08,9.55s2.25,4.09,4.58,5.54,5.15,2.18,8.45,2.18c3.01,0,5.64-.63,7.91-1.89,2.27-1.26,3.79-2.81,4.58-4.67s1.19-4.75,1.19-8.67c0-5.39-.71-9.3-2.14-11.73Z"/>
    </g>
  </g>
</svg>