<?xml version="1.0" encoding="UTF-8"?>
<svg id="Calque_2" data-name="Calque 2" xmlns="http://www.w3.org/2000/svg" viewBox="0 0 371.1 57.34">
  <defs>
    <style>
      .cls-1 {
        fill: #f2e438;
      }
    </style>
  </defs>
  <g id="Calque_1-2" data-name="Calque 1">
    <g>
      <path class="cls-1" d="M13.17,50.49c1.9-1.49,4.16-2.46,7.09-2.84.57-.07,1.11-.18,1.65-.3,1.19-9.73,1.97-16.41,2.36-20.03.66,6.6,1.38,12.76,2.17,18.49.46-.21.93-.43,1.38-.65,5.19-2.57,11.01-3.79,17.05-3.98.01,0,.02,0,.03,0L48.9,1.16h-11.98c-1.59,12.74-2.74,25.77-3.44,39.08l-1.36-20.94c-.73-10.49-1.17-16.54-1.35-18.15h-12.81c-1.82,15.57-2.96,28.15-3.41,37.76l-1.26-18.56L11.98,1.16H0l5.37,53.54s.08-.04.12-.06c3.1-1.01,5.55-2.48,7.67-4.15Z"/>
      <path class="cls-1" d="M5.52,55.18s-.06.01-.1.02l.1.99h15.31c.24-1.92.46-3.75.68-5.5-4.81,1.13-9.52,2.45-14.16,3.97-.6.2-1.21.36-1.82.53Z"/>
      <path class="cls-1" d="M31.65,48.63c-1.57.27-3.13.56-4.68.87.34,2.3.69,4.53,1.04,6.68h15.4l.72-7.21c-1.51-.16-3.08-.27-4.52-.54-2.56-.48-5.14-.27-7.96.2Z"/>
      <path class="cls-1" d="M69.01,35.47c1.9-.6,3.75-.96,5.59-.58.61.12,1.21.22,1.81.28L72.06,1.16h-17.83l-4.53,39.62c2.04-.27,4.06-.68,6.06-1.28,4.42-1.33,8.85-2.66,13.25-4.03ZM63.65,13.42c.63,9.18,1.25,16.88,1.88,23.11h-4.25c.32-4.87,1.11-12.57,2.37-23.11Z"/>
      <path class="cls-1" d="M69.11,43.52c-5.35.96-10.56,1.08-15.72.83-.45-.02-.95.06-1.75.11-.82.52-1.67,1.05-2.53,1.6l-1.16,10.13h12.75l.74-9.89h4.41l.66,9.89h12.6l-1.56-12.2c-.8-.08-1.59-.2-2.39-.39-1.83-.43-3.93-.46-6.06-.08Z"/>
      <path class="cls-1" d="M95.42,31.19V12.17h7.32V1.16h-26.95v11.01h7.29v22.63c2-.37,4-.9,6-1.5,2.16-.64,4.28-1.34,6.34-2.11Z"/>
      <path class="cls-1" d="M88.07,42.51c-1.67.59-3.33,1.03-4.99,1.3v12.37h12.33v-16.64c-1.12.5-2.26,1-3.44,1.49-1.27.53-2.59,1.01-3.91,1.48Z"/>
      <path class="cls-1" d="M124.93,35.23c-1.05-.11-1.99.02-2.91.3v5.51c0,3.02-.14,4.94-.42,5.76-.28.82-.88,1.23-1.8,1.23s-1.57-.41-1.85-1.22-.41-2.56-.41-5.23v-4.27c-.05.03-.11.05-.16.07-3.89,2.03-7.98,2.34-12.13,2.19.12,3.94.48,7.02,1.1,9.19.76,2.69,2.31,4.79,4.66,6.3s5.32,2.28,8.94,2.28,6.4-.9,8.77-2.69c2.37-1.79,3.91-3.88,4.6-6.26.69-2.38,1.04-6.42,1.04-12.12v-1.43c-3.14.52-6.25.73-9.42.4Z"/>
      <path class="cls-1" d="M117.54,26.37v-10.36c0-2.79.14-4.6.41-5.44.27-.84.92-1.26,1.93-1.26.9,0,1.48.35,1.74,1.03.26.69.4,2.43.4,5.21v9.56h12.33v-5.23c0-5.14-.37-8.92-1.11-11.35s-2.29-4.46-4.66-6.09-5.36-2.44-8.99-2.44c-2.68,0-5.04.53-7.1,1.58-2.06,1.05-3.67,2.5-4.83,4.33-1.16,1.84-1.86,3.74-2.09,5.73-.23,1.98-.35,4.96-.35,8.92v6.91c.95-.19,1.94-.33,3-.37,3.09-.12,6.21-.44,9.33-.74Z"/>
      <path class="cls-1" d="M159.25,21.64c2.29-.84,4.62-1.11,7.08-1.26.27-.02.54-.04.82-.06V1.16h-12.33v19.68h-3.69V1.16h-12.33v24.1c2.58-.36,5.16-.68,7.74-.97,4.37-.49,8.67-1.17,12.73-2.65Z"/>
      <path class="cls-1" d="M162.71,33.67c-1.83-.08-3.65-.41-5.19-.89-5.21-1.63-11.04-.94-16.61.58-.72.2-1.43.38-2.13.55v22.27h12.33v-23.11h3.69v23.11h12.33v-22.37c-1.16,0-2.56-.06-4.43-.15Z"/>
      <path class="cls-1" d="M192.39,20.03c.32-.03.65-.02.95-.09.56-.14,1.11-.25,1.67-.37v-9c1.6,0,2.66.28,3.16.85.51.57.76,1.79.76,3.67v3.76c3.48-.5,6.91-.67,10.31-.64v-1.65c0-3.44-.16-5.99-.48-7.63-.32-1.64-.94-3.04-1.85-4.2s-2.27-2.04-4.07-2.65-4.39-.92-7.75-.92h-12.42v17.59c.64-.05,1.28-.1,1.92-.12,4.71-.22,4.69-.14,7.8,1.41Z"/>
      <path class="cls-1" d="M190.55,31.17c-2.34-.78-5.15-.69-7.88-.74v25.75h12.33v-22.16h3.31c2.7,0,4.88-.43,6.55-1.29.81-.42,1.5-.93,2.06-1.52-2.65,1.07-5.44,1.5-8.59,1.5-3.15,0-5.77-.3-7.78-1.54Z"/>
      <path class="cls-1" d="M229.15,28.55c-.41-.1-.85-.18-1.28-.26-1.06-.21-1.9-.38-2.59-.52.27,3.19.53,6.12.8,8.77h-4.25c.16-2.39.43-5.47.81-9.23-1.45-.12-2.53.21-7.13.92-1.34.21-2.65.65-3.95,1.07l-3.07,26.88h12.75l.74-9.89h4.41l.66,9.89h12.6l-3.56-27.74c-.79.1-1.58.19-2.37.3-1.66.22-3.18.17-4.59-.19Z"/>
      <path class="cls-1" d="M223.58,18.65c.19-1.66.39-3.4.61-5.23.12,1.79.24,3.5.37,5.18,2.37-.14,4.76-.42,7.2-.9.96-.19,1.93-.36,2.9-.53l-2.05-16.01h-17.83l-1.96,17.15c1.1.05,2.2.12,3.3.2,2.49.19,4.97.25,7.46.15Z"/>
      <path class="cls-1" d="M254.09,17.67v-7.1c1.43,0,2.41.27,2.94.82.54.54.81,1.69.81,3.43v3.02c0,.67-.02,1.26-.07,1.77.1.05.21.11.31.16,3.76-.13,7.44-.23,11.1-.36.07-.97.11-2.05.11-3.24,0-4.69-.65-8.11-1.95-10.25s-2.98-3.47-5.04-3.99c-2.06-.52-6-.78-11.82-.78h-8.73v14.9c4.72-.54,8.97-.22,12.33,1.61Z"/>
      <path class="cls-1" d="M259.35,27.35c-3.06.2-6.06.19-8.91-.2-2.14-.29-4.32-.09-6.61.28-.69.11-1.38.21-2.07.3v28.45h12.33v-24.81c1.7,0,2.75.35,3.15,1.05.4.7.6,2.53.6,5.47v18.28h11.46v-14.51c0-4.44-.1-7.15-.31-8.14-.21-.99-.73-2.07-1.57-3.25-.84-1.18-2.48-2.12-4.92-2.82.18-.02.35-.05.52-.07-1.18-.1-2.4-.12-3.67-.04Z"/>
      <path class="cls-1" d="M290.51,17.95c.36.09.72.16,1.08.23v-6.01h7.32V1.16h-26.95v11.01h7.29v6.52c.97-.17,1.94-.36,2.89-.56,2.98-.65,5.74-.82,8.36-.18Z"/>
      <path class="cls-1" d="M283.66,25.58c-1.55-.14-2.97.01-4.4.42v30.18h12.33v-30.71c-2.68.29-5.33.35-7.94.12Z"/>
      <path class="cls-1" d="M301.73,24.14v32.04h12.33v-30.42c-.57-.14-1.12-.3-1.63-.51-3.16-1.32-6.85-1.38-10.7-1.11Z"/>
      <path class="cls-1" d="M307,18.16c2.08.81,4.46,1.19,7.07,1.18V1.16h-12.33v16.5c1.91-.24,3.68-.12,5.27.5Z"/>
      <path class="cls-1" d="M329.09,22.75c1.67.66,3.5.89,5.63.84,1.44-.04,2.89-.09,4.33-.21v-.78h-7.71v-10.43h8.23V1.16h-20.57v18.27c.86.14,1.68.36,2.47.64,2.52.91,5.17,1.71,7.61,2.68Z"/>
      <path class="cls-1" d="M328.07,27.08c-2.8-.65-5.9-.82-9.05-.83v29.93h21.39v-11.01h-9.05v-12.1h7.71v-6.06c-.42.05-.84.12-1.27.2-3.48.66-6.67.58-9.72-.13Z"/>
      <path class="cls-1" d="M368.97,30.38c-.57-.97-1.48-2.05-2.69-3.23-2.62.47-5.05.73-7.48.61-4.18-.2-8.35-.42-12.47-.74.02.02.03.05.05.07,1,1.07,3.03,2.78,6.09,5.13,3.07,2.33,4.99,4,5.77,5,.76,1,1.14,3.12,1.14,6.36,0,1.47-.2,2.58-.6,3.33s-1.01,1.12-1.83,1.12-1.39-.29-1.71-.88c-.32-.59-.48-1.91-.48-3.98v-6.7h-11.46v3.6c0,4.12.36,7.31,1.08,9.55s2.25,4.09,4.58,5.54,5.15,2.18,8.45,2.18c3.01,0,5.64-.63,7.91-1.89,2.27-1.26,3.79-2.81,4.58-4.67s1.19-4.75,1.19-8.67c0-5.39-.71-9.3-2.14-11.73Z"/>
      <path class="cls-1" d="M350.57,22.96c.73.29,1.61.46,2.35.75,1.9.75,4.13.99,6.53,1,1.4,0,2.79.06,4.17.1-1.43-1.16-3.1-2.41-5.03-3.74-1.92-1.31-3.08-2.43-3.49-3.36-.43-.93-.64-2.31-.64-4.15,0-1.43.19-2.49.57-3.2s.94-1.05,1.68-1.05c.68,0,1.17.26,1.46.78.29.52.44,1.73.44,3.64v4.08h11.46v-2.18c0-4.37-.37-7.47-1.1-9.3-.73-1.82-2.23-3.34-4.48-4.54-2.26-1.2-4.99-1.8-8.19-1.8-2.93,0-5.43.55-7.5,1.65-2.07,1.1-3.57,2.62-4.5,4.57s-1.39,5.03-1.39,9.24c0,2.92.33,5.32.98,7.21,0,.02.01.03.02.05.13-.03.26-.04.39-.07,2.4-.53,4.43-.4,6.26.32Z"/>
    </g>
  </g>
</svg>